<svg width="57" height="57" viewBox="0 0 57 57" fill="none" xmlns="http://www.w3.org/2000/svg">
<path d="M28.7188 28.8374C30.6528 28.8374 32.2207 27.2695 32.2207 25.3355C32.2207 23.4014 30.6528 21.8335 28.7188 21.8335C26.7847 21.8335 25.2168 23.4014 25.2168 25.3355C25.2168 27.2695 26.7847 28.8374 28.7188 28.8374Z" fill="#36D9D9"/>
<path d="M32.4869 35.1668C35.1727 35.1668 35.6294 34.3867 34.3049 32.0503C33.2173 30.1317 31.157 28.8374 28.7943 28.8374H28.6431C26.2803 28.8374 24.22 30.1321 23.1325 32.0503C21.8068 34.3897 22.2616 35.1668 24.9505 35.1668H32.4861H32.4869Z" fill="#36D9D9"/>
<path d="M18.6158 41.8687C18.46 41.8687 18.3027 41.8212 18.1668 41.7229C16.2324 40.3195 14.6196 38.5723 13.3728 36.5296C13.1274 36.1327 12.9008 35.7253 12.701 35.3222C12.513 34.9433 12.6681 34.4839 13.047 34.2963C13.4264 34.108 13.885 34.2638 14.073 34.6424C14.2518 35.003 14.455 35.3682 14.6774 35.7284C15.8205 37.6011 17.2963 39.1997 19.0656 40.4837C19.4079 40.7318 19.484 41.2107 19.2356 41.5529C19.0859 41.7596 18.8524 41.8691 18.6154 41.8691L18.6158 41.8687Z" fill="#AEAEAE"/>
<path d="M38.9753 41.758C38.7414 41.758 38.5106 41.6512 38.3601 41.4491C38.1078 41.1095 38.1787 40.6299 38.5182 40.378C40.2263 39.1089 41.6527 37.5459 42.7579 35.7325C42.9768 35.3781 43.1824 35.0113 43.3715 34.6373C43.5618 34.2595 44.0223 34.1079 44.4001 34.2989C44.7776 34.4895 44.9292 34.9501 44.7385 35.3275C44.5299 35.7406 44.3029 36.1464 44.0633 36.5338C42.8578 38.5118 41.2986 40.2202 39.4316 41.6072C39.2946 41.709 39.1342 41.7584 38.9757 41.7584L38.9753 41.758Z" fill="#AEAEAE"/>
<path d="M32.9943 6.84424L32.4124 10.0216L31.6162 14.3856C31.3099 16.0509 31.2525 16.0968 29.5605 16.0968H27.4397C25.7438 16.0968 25.6902 16.0509 25.384 14.3856L24.5877 10.0369L24.0059 6.84424H32.9943Z" fill="#E8E8E8"/>
<path d="M32.4126 10.0216L31.6163 14.3857C31.3101 16.0509 31.2527 16.0969 29.5606 16.0969H27.4398C25.744 16.0969 25.6904 16.0509 25.3841 14.3857L24.5879 10.0369C28.6648 8.83491 28.8256 11.6409 32.3934 10.0369C32.3934 10.0369 32.4011 10.0331 32.4126 10.0216Z" fill="#9FCDFF"/>
<path d="M11.8577 32.6166C3.17019 27.3051 8.80327 21.8385 11.8577 25.1349C14.916 21.8381 20.5453 27.3051 11.8577 32.6166Z" fill="#FF9999"/>
<path d="M45.7171 31.8257C40.2468 33.4871 40.3693 21.7309 45.7171 25.5208C51.0689 21.7309 51.1914 33.4871 45.7171 31.8257Z" fill="#FF6666"/>
<path d="M45.7172 26.286C45.7142 26.286 45.7115 26.286 45.7084 26.286C45.2858 26.2814 44.947 25.9357 44.9512 25.5131C44.9562 25.0139 45.0504 22.477 46.4082 21.5418C46.7569 21.3022 47.2332 21.3898 47.4732 21.7378C47.7128 22.0862 47.6252 22.5628 47.2772 22.8028C46.7539 23.1634 46.4936 24.643 46.4825 25.5296C46.4771 25.9491 46.1356 26.2864 45.7168 26.2864L45.7172 26.286Z" fill="black"/>
<path d="M34.542 48.2188H22.8945C22.0489 48.2188 21.3633 47.5331 21.3633 46.6875C21.3633 45.8419 22.0489 45.1562 22.8945 45.1562H34.542C35.3876 45.1562 36.0732 45.8419 36.0732 46.6875C36.0732 47.5331 35.3876 48.2188 34.542 48.2188Z" fill="#AEAEAE"/>
<path d="M23.367 43.1709H21.8032C21.1913 43.1709 20.6953 43.6669 20.6953 44.2788V49.0965C20.6953 49.7083 21.1913 50.2043 21.8032 50.2043H23.367C23.9788 50.2043 24.4748 49.7083 24.4748 49.0965V44.2788C24.4748 43.6669 23.9788 43.1709 23.367 43.1709Z" fill="#888888"/>
<path d="M35.6326 43.1709H34.0688C33.4569 43.1709 32.9609 43.6669 32.9609 44.2788V49.0965C32.9609 49.7083 33.4569 50.2043 34.0688 50.2043H35.6326C36.2444 50.2043 36.7404 49.7083 36.7404 49.0965V44.2788C36.7404 43.6669 36.2444 43.1709 35.6326 43.1709Z" fill="#888888"/>
<path d="M44.3153 20.657C44.0274 20.657 43.7514 20.4939 43.6216 20.216C42.1792 17.1355 39.751 14.5174 36.7842 12.8445C36.4159 12.637 36.2858 12.17 36.4933 11.8014C36.7011 11.4335 37.1682 11.3037 37.5364 11.5104C40.7785 13.3387 43.4321 16.1999 45.0085 19.5663C45.1881 19.9491 45.0231 20.4051 44.6399 20.5842C44.535 20.6332 44.4244 20.6566 44.3157 20.6566L44.3153 20.657Z" fill="#AEAEAE"/>
<path d="M13.1228 20.6571C13.0141 20.6571 12.9039 20.6337 12.7986 20.5847C12.4158 20.4056 12.2504 19.9496 12.4299 19.5668C14.0064 16.2004 16.66 13.3392 19.9021 11.5109C20.2703 11.3034 20.7374 11.4332 20.9452 11.8019C21.1527 12.1701 21.0226 12.6372 20.6543 12.845C17.6875 14.5179 15.2593 17.136 13.8169 20.2165C13.6867 20.4944 13.4107 20.6575 13.1232 20.6575L13.1228 20.6571Z" fill="#AEAEAE"/>
</svg>
