<svg width="20" height="20" viewBox="0 0 20 20" fill="none" xmlns="http://www.w3.org/2000/svg">
<g clip-path="url(#clip0_8164_16005)">
<path d="M14.3402 3.43524C12.4052 2.52024 10.7102 3.15024 9.12019 4.40274C7.53769 3.15024 5.84269 2.52024 3.91519 3.43524C1.87519 4.39524 0.892689 7.08774 1.89769 9.13524C2.50519 10.3952 3.60019 11.5577 4.59019 12.4877C5.30269 13.1552 6.73519 14.4977 8.28769 15.4652C8.80519 15.7877 9.46519 15.7877 9.98269 15.4652C10.8377 14.9327 11.6627 14.2802 12.3452 13.6877C12.2102 13.5677 12.0977 13.4552 12.0152 13.3727C11.6102 12.9677 11.0327 12.3527 10.7027 11.6477C10.1327 10.4252 10.6802 8.84274 11.8577 8.25774C12.7052 7.84524 13.5452 7.92024 14.4152 8.52024C15.1952 7.98774 15.9377 7.86774 16.6952 8.13774C17.0327 6.28524 16.0577 4.23774 14.3477 3.43524H14.3402ZM5.13019 4.65774C4.87519 4.65774 4.27519 4.90524 3.80269 5.43774C3.50269 5.76774 3.16519 6.30774 3.24019 7.05024C3.26269 7.24524 3.12019 7.42524 2.91769 7.44774H2.88019C2.69269 7.44774 2.54269 7.31274 2.51269 7.12524C2.40769 6.12774 2.85769 5.38524 3.24769 4.95774C3.84769 4.29024 4.64269 3.93774 5.12269 3.93774C5.32519 3.93774 5.49019 4.09524 5.49019 4.29024C5.49019 4.48524 5.33269 4.65774 5.12269 4.65774H5.13019Z" fill="#2ECACA"/>
<path d="M17.2501 10.6048C17.2501 10.7998 17.2126 11.0023 17.1301 11.1823C16.8751 11.7298 16.3951 12.2473 16.0426 12.5923C15.7426 12.8773 15.1351 13.4923 14.4826 13.9123C14.4376 13.9498 14.3776 13.9498 14.3401 13.9123C13.8976 13.6273 13.4776 13.2523 13.1626 12.9598C13.0126 12.8098 12.8776 12.6823 12.7801 12.5848C12.4426 12.2473 11.9476 11.7298 11.6926 11.1748C11.3776 10.5073 11.6926 9.55484 12.3376 9.23984C12.5251 9.14984 12.7126 9.09735 12.9076 9.09735C13.2601 9.09735 13.6276 9.26985 14.0626 9.62235L14.4076 9.92234L14.7601 9.62235C15.3526 9.12735 15.8326 8.98484 16.3276 9.17984C16.3801 9.19484 16.4326 9.21734 16.4776 9.23984C16.9501 9.47234 17.2426 10.0423 17.2426 10.5973L17.2501 10.6048Z" fill="#2ECACA"/>
</g>
<defs>
<clipPath id="clip0_8164_16005">
<rect width="20" height="20" fill="white"/>
</clipPath>
</defs>
</svg>
