<svg width="50" height="50" viewBox="0 0 50 50" fill="none" xmlns="http://www.w3.org/2000/svg">
<g clip-path="url(#clip0_9523_22915)">
<path d="M27.0723 60.0004H28.606C31.143 60.0004 33.2071 57.9364 33.2071 55.3993V39.8579C33.2071 39.0109 32.5204 38.3242 31.6734 38.3242H19.4038C18.5568 38.3242 17.8701 39.0109 17.8701 39.8579V55.3993C17.8701 57.9364 19.9342 60.0004 22.4712 60.0004H24.0049L25.5386 58.7735L27.0723 60.0004Z" fill="#738C96"/>
<path d="M31.6734 38.3242H25.5386V58.7735L27.0723 60.0004H28.606C31.143 60.0004 33.207 57.9364 33.207 55.3993V39.8579C33.207 39.0109 32.5204 38.3242 31.6734 38.3242Z" fill="#55696E"/>
<path d="M25.5386 46.5039C24.6916 46.5039 24.0049 47.1906 24.0049 48.0376V60.0004H27.0723V48.0376C27.0723 47.1906 26.3856 46.5039 25.5386 46.5039Z" fill="#55696E"/>
<path d="M27.0723 48.0376C27.0723 47.1906 26.3856 46.5039 25.5386 46.5039V60.0004H27.0723V48.0376Z" fill="#485959"/>
<path d="M31.6734 41.3916H19.4038C16.8668 41.3916 14.8027 39.3276 14.8027 36.7906V28.6109C14.8027 22.6911 19.6188 17.875 25.5386 17.875C31.4583 17.875 36.2745 22.6911 36.2745 28.6109V36.7906C36.2745 39.3276 34.2104 41.3916 31.6734 41.3916Z" fill="#F0F0F0"/>
<path d="M25.5386 17.875V41.3916H31.6734C34.2104 41.3916 36.2744 39.3276 36.2744 36.7906V28.6109C36.2744 22.6911 31.4583 17.875 25.5386 17.875Z" fill="#E1E1E1"/>
<path d="M25.5386 19.9199C22.1559 19.9199 19.4038 17.1679 19.4038 13.7852C19.4038 10.4025 22.1559 7.65039 25.5386 7.65039C28.9213 7.65039 31.6734 10.4025 31.6734 13.7852C31.6734 17.1679 28.9213 19.9199 25.5386 19.9199Z" fill="#FFDECF"/>
<path d="M25.5386 7.65039V19.9199C28.9213 19.9199 31.6734 17.1679 31.6734 13.7852C31.6734 10.4025 28.9213 7.65039 25.5386 7.65039Z" fill="#FFCDBE"/>
<path d="M2.84035 60.0004C-1.38805 60.0004 -4.82812 56.5604 -4.82812 52.332V39.8579C-4.82812 39.0109 -4.14144 38.3242 -3.29443 38.3242C-2.44742 38.3242 -1.76074 39.0109 -1.76074 39.8579V52.332C-1.76074 54.869 0.303309 56.9331 2.84035 56.9331C5.37738 56.9331 7.44143 54.869 7.44143 52.332V36.7905C7.44143 32.5621 10.8815 29.1221 15.1099 29.1221H22.4716C23.3186 29.1221 24.0053 29.8088 24.0053 30.6558C24.0053 31.5028 23.3186 32.1895 22.4716 32.1895H15.1099C12.5729 32.1895 10.5088 34.2535 10.5088 36.7905V52.332C10.5088 56.5604 7.06874 60.0004 2.84035 60.0004Z" fill="#E1E1E1"/>
<path d="M25.5386 35.2569C23.0015 35.2569 20.9375 33.1928 20.9375 30.6558C20.9375 28.1187 23.0015 26.0547 25.5386 26.0547C28.0756 26.0547 30.1397 28.1187 30.1397 30.6558C30.1397 33.1928 28.0756 35.2569 25.5386 35.2569Z" fill="#2ECACA"/>
<path d="M25.5386 26.0547V35.2569C28.0756 35.2569 30.1397 33.1928 30.1397 30.6558C30.1397 28.1187 28.0756 26.0547 25.5386 26.0547Z" fill="#2ECACA"/>
<path d="M25.5386 32.1895C26.3856 32.1895 27.0723 31.5028 27.0723 30.6558C27.0723 29.8087 26.3856 29.1221 25.5386 29.1221C24.6915 29.1221 24.0049 29.8087 24.0049 30.6558C24.0049 31.5028 24.6915 32.1895 25.5386 32.1895Z" fill="#EBEBF0"/>
<path d="M25.5386 29.1221V32.1895C26.3843 32.1895 27.0723 31.5014 27.0723 30.6558C27.0723 29.8101 26.3843 29.1221 25.5386 29.1221Z" fill="#D2DCE1"/>
</g>
<defs>
<clipPath id="clip0_9523_22915">
<rect width="42" height="45" fill="white" transform="translate(4 5)"/>
</clipPath>
</defs>
</svg>
