<svg width="24" height="24" viewBox="0 0 24 24" fill="none" xmlns="http://www.w3.org/2000/svg">
<g clip-path="url(#clip0_9523_23422)">
<path d="M19.1203 4.57999C16.5403 3.35999 14.2803 4.19999 12.1603 5.86999C10.0503 4.19999 7.79025 3.35999 5.22025 4.57999C2.50025 5.85999 1.19025 9.44999 2.53025 12.18C3.34025 13.86 4.80025 15.41 6.12025 16.65C7.07025 17.54 8.98025 19.33 11.0503 20.62C11.7403 21.05 12.6203 21.05 13.3103 20.62C14.4503 19.91 15.5503 19.04 16.4603 18.25C16.2803 18.09 16.1303 17.94 16.0203 17.83C15.4803 17.29 14.7103 16.47 14.2703 15.53C13.5103 13.9 14.2403 11.79 15.8103 11.01C16.9403 10.46 18.0603 10.56 19.2203 11.36C20.2603 10.65 21.2503 10.49 22.2603 10.85C22.7103 8.37999 21.4103 5.64999 19.1303 4.57999H19.1203ZM6.84025 6.20999C6.50025 6.20999 5.70025 6.53999 5.07025 7.24999C4.67025 7.68999 4.22025 8.40999 4.32025 9.39999C4.35025 9.65999 4.16025 9.89999 3.89025 9.92999H3.84025C3.59025 9.92999 3.39025 9.74999 3.35025 9.49999C3.21025 8.16999 3.81025 7.17999 4.33025 6.60999C5.13025 5.71999 6.19025 5.24999 6.83025 5.24999C7.10025 5.24999 7.32025 5.45999 7.32025 5.71999C7.32025 5.97999 7.11025 6.20999 6.83025 6.20999H6.84025Z" fill="#FF6666"/>
<path d="M23.0002 14.1401C23.0002 14.4001 22.9502 14.6701 22.8402 14.9101C22.5002 15.6401 21.8602 16.3301 21.3902 16.7901C20.9902 17.1701 20.1802 17.9901 19.3102 18.5501C19.2502 18.6001 19.1702 18.6001 19.1202 18.5501C18.5302 18.1701 17.9702 17.6701 17.5502 17.2801C17.3502 17.0801 17.1702 16.9101 17.0402 16.7801C16.5902 16.3301 15.9302 15.6401 15.5902 14.9001C15.1702 14.0101 15.5902 12.7401 16.4502 12.3201C16.7002 12.2001 16.9502 12.1301 17.2102 12.1301C17.6802 12.1301 18.1702 12.3601 18.7502 12.8301L19.2102 13.2301L19.6802 12.8301C20.4702 12.1701 21.1102 11.9801 21.7702 12.2401C21.8402 12.2601 21.9102 12.2901 21.9702 12.3201C22.6002 12.6301 22.9902 13.3901 22.9902 14.1301L23.0002 14.1401Z" fill="#FF6666"/>
</g>
<defs>
<clipPath id="clip0_9523_23422">
<rect width="24" height="24" fill="white"/>
</clipPath>
</defs>
</svg>
