<svg width="24" height="24" viewBox="0 0 24 24" fill="none" xmlns="http://www.w3.org/2000/svg">
<path d="M16.3976 15.9248L16.8867 16.0396L18.4749 20.6023C18.5255 20.7476 18.4077 20.8963 18.2546 20.8802L16.0285 20.6471C15.9664 20.6406 15.9045 20.6621 15.8599 20.7058L14.2596 22.2707C14.1496 22.3783 13.965 22.3349 13.9144 22.1896L12.3159 17.5971L12.5472 17.2581L16.3976 15.9248Z" fill="#008ADF"/>
<path d="M12.3157 17.5969L11.9927 16.669L16.5645 15.1143L16.8865 16.0395C15.5883 16.9658 14.0164 17.5329 12.3157 17.5969Z" fill="#3685DB"/>
<path d="M7.59555 15.9248L7.10637 16.0396L5.51825 20.6023C5.46765 20.7476 5.5854 20.8963 5.73847 20.8802L7.96455 20.6471C8.02674 20.6406 8.08856 20.6621 8.13324 20.7058L9.7335 22.2707C9.84351 22.3783 10.0281 22.3349 10.0787 22.1896L11.6771 17.5971L11.4459 17.2581L7.59555 15.9248Z" fill="#008ADF"/>
<path d="M11.6768 17.5969L11.9998 16.669L7.42799 15.1143L7.10596 16.0395C8.40413 16.9658 9.97606 17.5329 11.6768 17.5969Z" fill="#3685DB"/>
<path d="M11.9998 16.1404C4.50912 16.1404 4.5029 8.91616 4.50912 8.79094C4.70601 4.82444 7.98438 1.66895 11.9998 1.66895C16.0151 1.66895 19.2935 4.82444 19.4904 8.79094C19.4966 8.91616 19.4998 16.1404 11.9998 16.1404Z" fill="#FFCB5B"/>
<path d="M12 15.913C7.98463 15.913 4.70637 12.7575 4.50944 8.79102C4.50323 8.91624 4.5 9.04226 4.5 9.16902C4.5 13.3111 7.85787 16.669 12 16.669C16.1421 16.669 19.5 13.3111 19.5 9.16902C19.5 9.04226 19.4968 8.91624 19.4906 8.79102C19.2936 12.7575 16.0154 15.913 12 15.913Z" fill="#F7B737"/>
<path d="M11.9996 14.5838C6.10306 14.5838 6.09515 8.91613 6.10306 8.79111C6.29797 5.70414 8.86344 3.26074 11.9996 3.26074C15.1357 3.26074 17.7012 5.70414 17.8961 8.79111C17.904 8.91613 17.908 14.5838 11.9996 14.5838Z" fill="#FF9838"/>
<path d="M11.9997 14.3214C8.8636 14.3214 6.29865 11.8779 6.1037 8.79102C6.09579 8.91603 6.09131 9.04202 6.09131 9.16902C6.09131 12.4321 8.7366 15.0774 11.9997 15.0774C15.2628 15.0774 17.9081 12.4321 17.9081 9.16902C17.9081 9.04198 17.9037 8.91603 17.8957 8.79102C17.7008 11.8779 15.1358 14.3214 11.9997 14.3214Z" fill="#FF8709"/>
<path d="M12.5408 6.29131L13.0918 7.40784C13.1797 7.58585 13.3495 7.70925 13.546 7.73778L14.7781 7.91684C15.2729 7.98871 15.4704 8.59669 15.1124 8.94568L14.2208 9.81476C14.0787 9.95334 14.0138 10.153 14.0473 10.3486L14.2578 11.5758C14.2778 11.6922 14.2259 11.899 14.2259 11.899H13.3827L11.9999 11.1215L10.6172 11.8989L9.78085 11.9157C9.78085 11.9157 9.72084 11.699 9.74199 11.5758L9.95248 10.3486C9.98605 10.1529 9.92116 9.95329 9.77899 9.81472L8.8874 8.94564C8.52941 8.59669 8.72695 7.98871 9.2217 7.9168L10.4538 7.73774C10.6503 7.70921 10.8201 7.58581 10.908 7.4078L11.459 6.29127C11.6803 5.84301 12.3196 5.84301 12.5408 6.29131Z" fill="#FFF5F5"/>
<path d="M11.9024 10.78L9.77441 11.8987C9.89818 12.2119 10.2794 12.3893 10.6173 12.2116L11.7194 11.6322C11.8951 11.5398 12.1051 11.5398 12.2808 11.6322L13.3829 12.2116C13.7209 12.3893 14.1021 12.2119 14.2258 11.8987L12.0979 10.78C12.0366 10.7478 11.9635 10.7478 11.9024 10.78Z" fill="#EFE2DD"/>
</svg>
