<svg width="24" height="24" viewBox="0 0 24 24" fill="none" xmlns="http://www.w3.org/2000/svg">
<mask id="path-1-inside-1_10222_29481" fill="white">
<path d="M20 16C20 16.5523 20.4477 17 21 17C21.5523 17 22 17.4477 22 18C22 18.5523 21.5523 19 21 19H3C2.44772 19 2 18.5523 2 18C2 17.4477 2.44772 17 3 17C3.55228 17 4 16.5523 4 16V10C4 7.87827 4.84285 5.84344 6.34315 4.34315C7.84344 2.84285 9.87827 2 12 2C14.1217 2 16.1566 2.84285 17.6569 4.34315C19.1571 5.84344 20 7.87827 20 10V16ZM9 22C9 21.4477 9.44772 21 10 21H14C14.5523 21 15 21.4477 15 22C15 22.5523 14.5523 23 14 23H10C9.44772 23 9 22.5523 9 22Z"/>
</mask>
<path d="M20 16C20 16.5523 20.4477 17 21 17C21.5523 17 22 17.4477 22 18C22 18.5523 21.5523 19 21 19H3C2.44772 19 2 18.5523 2 18C2 17.4477 2.44772 17 3 17C3.55228 17 4 16.5523 4 16V10C4 7.87827 4.84285 5.84344 6.34315 4.34315C7.84344 2.84285 9.87827 2 12 2C14.1217 2 16.1566 2.84285 17.6569 4.34315C19.1571 5.84344 20 7.87827 20 10V16ZM9 22C9 21.4477 9.44772 21 10 21H14C14.5523 21 15 21.4477 15 22C15 22.5523 14.5523 23 14 23H10C9.44772 23 9 22.5523 9 22Z" stroke="#555555" stroke-width="4" mask="url(#path-1-inside-1_10222_29481)"/>
</svg>
