<svg width="22" height="22" viewBox="0 0 22 22" fill="none" xmlns="http://www.w3.org/2000/svg">
<path fill-rule="evenodd" clip-rule="evenodd" d="M11.9167 17.4167H13.75C14.256 17.4167 14.6667 17.8273 14.6667 18.3333C14.6667 18.8393 14.256 19.25 13.75 19.25H8.25C7.744 19.25 7.33333 18.8393 7.33333 18.3333C7.33333 17.8273 7.744 17.4167 8.25 17.4167H10.0833V4.58333H4.58333V6.41667C4.58333 6.92267 4.17267 7.33333 3.66667 7.33333C3.16067 7.33333 2.75 6.92267 2.75 6.41667V3.66667C2.75 3.16067 3.16067 2.75 3.66667 2.75H18.3333C18.8393 2.75 19.25 3.16067 19.25 3.66667V6.41667C19.25 6.92267 18.8393 7.33333 18.3333 7.33333C17.8273 7.33333 17.4167 6.92267 17.4167 6.41667V4.58333H11.9167V17.4167Z" fill="#777777"/>
</svg>
