<svg width="22" height="22" viewBox="0 0 22 22" fill="none" xmlns="http://www.w3.org/2000/svg">
<path d="M19 9.41122C19 14.0503 15.8292 17.4717 13.4889 19.5047C12.5289 20.3386 11.803 21 11 21C10.197 21 9.47114 20.3386 8.51111 19.5047C6.17079 17.4717 3 14.0503 3 9.41122C3 7.18042 3.84285 5.041 5.34315 3.46359C6.84344 1.88618 8.87827 1 11 1C13.1217 1 15.1566 1.88618 16.6569 3.46359C18.1571 5.041 19 7.18042 19 9.41122Z" stroke="#777777" stroke-width="2" stroke-linecap="round" stroke-linejoin="round"/>
<path d="M10.75 11.5C12.2688 11.5 13.5 10.2688 13.5 8.75C13.5 7.23122 12.2688 6 10.75 6C9.23122 6 8 7.23122 8 8.75C8 10.2688 9.23122 11.5 10.75 11.5Z" stroke="#777777" stroke-width="2" stroke-linecap="round" stroke-linejoin="round"/>
</svg>
