<svg width="27" height="27" viewBox="0 0 27 27" fill="none" xmlns="http://www.w3.org/2000/svg">
<path d="M19.125 3.7125C14.7375 1.2375 9.3375 2.025 5.7375 5.2875V3.375C5.7375 2.7 5.2875 2.25 4.6125 2.25C3.9375 2.25 3.4875 2.7 3.4875 3.375V8.4375C3.4875 8.55 3.4875 8.6625 3.6 8.775V8.8875C3.7125 9.1125 3.9375 9.3375 4.1625 9.45C4.3875 9.5625 4.5 9.5625 4.6125 9.5625H9.675C10.35 9.5625 10.8 9.1125 10.8 8.4375C10.8 7.7625 10.35 7.3125 9.675 7.3125H6.975C8.6625 5.5125 11.025 4.5 13.5 4.5C18.45 4.5 22.5 8.55 22.5 13.5C22.5 14.175 22.95 14.625 23.625 14.625C24.3 14.625 24.75 14.175 24.75 13.5C24.75 9.45 22.6125 5.7375 19.125 3.7125ZM22.3875 17.4375H17.325C16.65 17.4375 16.2 17.8875 16.2 18.5625C16.2 19.2375 16.65 19.6875 17.325 19.6875H20.025C18.3375 21.4875 15.975 22.5 13.5 22.5C8.55 22.5 4.5 18.45 4.5 13.5C4.5 12.825 4.05 12.375 3.375 12.375C2.7 12.375 2.25 12.825 2.25 13.5C2.25 19.6875 7.3125 24.75 13.5 24.75C16.425 24.75 19.125 23.625 21.2625 21.6V23.625C21.2625 24.3 21.7125 24.75 22.3875 24.75C23.0625 24.75 23.5125 24.3 23.5125 23.625V18.5625C23.5125 17.8875 22.95 17.4375 22.3875 17.4375Z" fill="#777777"/>
</svg>
