<svg width="24" height="24" viewBox="0 0 24 24" fill="none" xmlns="http://www.w3.org/2000/svg">
<g clip-path="url(#clip0_9523_23508)">
<path d="M11.8202 19.7942C11.9175 19.6374 18.5258 8.98683 18.6231 8.83008C20.7464 5.40793 17.6386 1.15689 13.7654 2.06555C12.6421 2.32821 11.6193 3.02004 10.9632 4.0774L4.16038 15.0415C2.84796 17.1567 3.49875 19.9353 5.61397 21.2478C7.72924 22.5602 10.5081 21.9089 11.8202 19.7942Z" fill="#E1E1E1"/>
<path d="M11.6825 20.003C10.6 21.5516 8.24967 19.9792 9.24588 18.3738C10.3018 16.672 11.9423 14.0096 14.5668 9.77972C16.1788 7.18163 14.7858 3.78397 11.8534 3.03585C13.3192 1.77279 15.4985 1.55625 17.2195 2.6548C19.3067 3.9871 19.8974 6.77602 18.592 8.88003C11.3526 20.5476 11.7891 19.8506 11.6825 20.003Z" fill="#F0F0F0"/>
<path d="M15.2217 14.3121L7.5618 9.55946L10.9632 4.07741C11.6193 3.02005 12.6421 2.32822 13.7654 2.06556C17.6385 1.15692 20.7465 5.40779 18.6231 8.83009L15.2217 14.3121Z" fill="#FF3333"/>
<path d="M15.2213 14.3118L12.7181 12.7587L14.5664 9.77985C15.5048 8.26746 15.4249 6.48407 14.6157 5.11011C13.6632 3.49272 15.4707 1.53891 17.2191 2.65493C19.3063 3.98723 19.897 6.77615 18.5915 8.88016L15.2213 14.3118Z" fill="#FFD0D0"/>
</g>
<defs>
<clipPath id="clip0_9523_23508">
<rect width="24" height="24" fill="white"/>
</clipPath>
</defs>
</svg>
