<svg width="24" height="24" viewBox="0 0 24 24" fill="none" xmlns="http://www.w3.org/2000/svg">
<path d="M17.293 5.29297C17.6835 4.90244 18.3165 4.90244 18.707 5.29297C19.0973 5.68351 19.0975 6.31658 18.707 6.70703L13.4141 12L18.707 17.293C19.0973 17.6835 19.0975 18.3166 18.707 18.707C18.3166 19.0975 17.6835 19.0973 17.293 18.707L12 13.4141L6.70703 18.707C6.31658 19.0975 5.68351 19.0973 5.29297 18.707C4.90244 18.3165 4.90244 17.6835 5.29297 17.293L10.5859 12L5.29297 6.70703C4.90244 6.31651 4.90244 5.68349 5.29297 5.29297C5.68349 4.90244 6.31651 4.90244 6.70703 5.29297L12 10.5859L17.293 5.29297Z" fill="#555555"/>
</svg>
