<svg width="24" height="24" viewBox="0 0 24 24" fill="none" xmlns="http://www.w3.org/2000/svg">
<ellipse cx="12.5" cy="14.5" rx="5.5" ry="4.5" fill="white"/>
<path d="M12 2.75C17.1247 2.75 21.25 6.79312 21.25 11.7402C21.2499 15.9335 18.287 19.4775 14.2441 20.4512L14.1914 20.4639L14.1416 20.4834C14.1201 20.492 14.0564 20.511 13.8887 20.5391C13.8252 20.5483 13.7592 20.5605 13.6807 20.5781C13.532 20.598 13.4073 20.6165 13.252 20.6348L13.2422 20.6367L13.2314 20.6377C11.2905 20.9215 7.46874 21.1807 5.17383 21.2383C5.62168 20.6752 6.02918 20.0813 6.29785 19.6699L6.67188 19.0986L6.13672 18.6729C4.05535 17.0169 2.75015 14.5186 2.75 11.7305C2.75 6.79385 6.87478 2.75 12 2.75ZM8.86035 12.0703C7.66556 12.0703 6.66331 13.2111 7.0791 14.4404L7.08203 14.4482C7.78708 16.4576 9.73029 17.8896 12 17.8896C14.0757 17.8896 15.8777 16.6919 16.71 14.9502H16.7578L16.9307 14.4404C17.348 13.2065 16.3298 12.0706 15.1504 12.0703H8.86035Z" fill="#FFCB5B" stroke="#FFCB5B" stroke-width="1.5"/>
</svg>
