<svg width="24" height="24" viewBox="0 0 24 24" fill="none" xmlns="http://www.w3.org/2000/svg">
<path d="M12 2C6.48 2 2 6.36 2 11.73C2 14.76 3.42 17.47 5.67 19.26C5.35 19.75 4.84 20.49 4.31 21.11C4 21.46 4.25 22.01 4.72 22C6.95 21.97 11.22 21.69 13.34 21.38C13.51 21.36 13.65 21.34 13.8 21.32C13.88 21.3 13.94 21.29 14.01 21.28C14.19 21.25 14.32 21.22 14.42 21.18C18.78 20.13 22 16.3 22 11.74C22 6.36 17.52 2 12 2ZM16.21 14.2C15.61 15.91 13.95 17.14 12 17.14C10.05 17.14 8.39 15.91 7.79 14.2C7.56 13.52 8.11 12.82 8.86 12.82H15.15C15.89 12.82 16.45 13.52 16.22 14.2H16.21Z" fill="#2ECACA"/>
</svg>
