<svg width="24" height="24" viewBox="0 0 24 24" fill="none" xmlns="http://www.w3.org/2000/svg">
<path d="M9.40918 18.1777L8.8252 17.9102C8.44955 17.7383 8.0961 17.534 7.76953 17.2998L7.24414 16.9229L6.68457 17.2471L5.55859 17.9004L5.55273 17.9043C5.35816 18.0189 5.12876 18.052 4.89746 17.9912H4.89844C4.66902 17.9302 4.48285 17.787 4.36523 17.582L4.36328 17.5801L3.11523 15.4189C2.87586 14.9976 3.02351 14.4619 3.43359 14.2246H3.43555L4.56738 13.5684L5.11816 13.249L5.06152 12.6143C5.0435 12.4116 5.03418 12.2063 5.03418 12C5.03418 11.7937 5.0435 11.5884 5.06152 11.3857L5.11816 10.751L4.56738 10.4316L3.43555 9.77539H3.43457C3.02406 9.53785 2.87659 9.00236 3.11328 8.58398L4.36523 6.41895L4.36621 6.41602C4.48178 6.21441 4.66665 6.07033 4.89551 6.00879L4.89648 6.00977C5.1273 5.94901 5.35737 5.98128 5.55371 6.09766L5.5625 6.10254L6.68555 6.75293L7.24414 7.07617L7.76953 6.7002C8.0961 6.46602 8.44955 6.26168 8.8252 6.08984L9.40918 5.82227V3.875C9.40918 3.39353 9.80272 3 10.2842 3H12.7842C13.2656 3.00003 13.6592 3.39356 13.6592 3.875V5.82227L14.2422 6.08887C14.6182 6.26113 14.9723 6.46587 15.2988 6.7002L15.8242 7.07715L16.3828 6.75293L17.5098 6.09961L17.5146 6.09668C17.7113 5.98123 17.9412 5.94777 18.1699 6.00781V6.00879C18.3995 6.06972 18.5854 6.21284 18.7031 6.41797L18.7051 6.41992L19.9521 8.57715V8.57812C20.1933 9.0001 20.0448 9.53774 19.6338 9.77539H19.6328L18.501 10.4316L17.9502 10.751L18.0068 11.3857C18.0249 11.5884 18.0342 11.7937 18.0342 12C18.0342 12.2063 18.0249 12.4116 18.0068 12.6143L17.9502 13.249L18.502 13.5684L19.6338 14.2246H19.6348C20.0447 14.4618 20.1917 14.997 19.9551 15.416L18.7041 17.5811L18.7021 17.585C18.5861 17.7872 18.4 17.9301 18.1699 17.9912C17.9422 18.0512 17.7127 18.0197 17.5137 17.9023L17.5059 17.8984L16.3838 17.2471L15.8242 16.9229L15.2988 17.2998C14.973 17.5336 14.6196 17.7377 14.2422 17.9111L13.6602 18.1787V20.125C13.6595 20.6068 13.2653 21 12.7842 21H10.2842C9.80271 21 9.40918 20.6065 9.40918 20.125V18.1777Z" stroke="#555555" stroke-width="2"/>
<path d="M11.5342 10C12.6358 10 13.5342 10.8984 13.5342 12C13.5342 13.1016 12.6358 14 11.5342 14C10.4323 14 9.53418 13.1017 9.53418 12C9.53418 10.8983 10.4323 10 11.5342 10Z" stroke="#555555" stroke-width="2"/>
</svg>
