<svg width="24" height="24" viewBox="0 0 24 24" fill="none" xmlns="http://www.w3.org/2000/svg">
<path d="M21.6316 10.2206L12.7153 2.27504C12.305 1.90832 11.6728 1.90832 11.2625 2.27504L2.33517 10.2206C1.63651 10.8429 2.10228 11.943 3.0671 11.943H4.47552V20.9999C4.47552 21.5555 4.95238 22 5.54015 22H9.25526C9.84302 22 10.3199 21.5555 10.3199 20.9999V16.9993C10.3199 16.4437 10.7967 15.9992 11.3845 15.9992H12.4491C13.0369 15.9992 13.5138 16.4437 13.5138 16.9993V20.9999C13.5138 21.5555 13.9906 22 14.5784 22H18.2935C18.8813 22 19.3581 21.5555 19.3581 20.9999V11.943H20.9329C21.8977 11.943 22.3635 10.8429 21.6648 10.2206H21.6316Z" fill="#2ECACA"/>
</svg>
