<svg width="32" height="32" viewBox="0 0 32 32" fill="none" xmlns="http://www.w3.org/2000/svg">
<path d="M13.833 8.83301C13.5524 8.83312 13.3061 8.98512 13.1797 9.2373L11.293 13.0098C10.7652 14.0653 9.9167 14.946 8.88672 15.5156L8.67773 15.626L4.9043 17.5117C4.65121 17.6383 4.49914 17.8857 4.49902 18.166C4.49902 18.4464 4.65118 18.6937 4.9043 18.8203L8.67773 20.707C9.80162 21.2697 10.73 22.1964 11.293 23.3223L13.1797 27.0947C13.306 27.3471 13.5523 27.4999 13.833 27.5C14.1139 27.5 14.3609 27.3472 14.4873 27.0947L16.374 23.3223C16.937 22.1965 17.8645 21.2697 18.9883 20.707H18.9893L22.7627 18.8203C23.0157 18.6937 23.168 18.4463 23.168 18.166C23.1679 17.8857 23.0157 17.6383 22.7627 17.5117L18.9893 15.626H18.9883C17.8643 15.0632 16.937 14.1358 16.374 13.0098L14.4873 9.2373C14.3609 8.98495 14.1138 8.83301 13.833 8.83301Z" stroke="#777777" stroke-width="2"/>
<path d="M23.1436 5.69141C22.8309 6.31674 22.3164 6.83007 21.6924 7.14258H21.6914L19.9775 8L21.6914 8.85742H21.6924C22.3164 9.16993 22.8309 9.68326 23.1436 10.3086L24 12.0225L24.8564 10.3086C25.1691 9.68326 25.6836 9.16993 26.3076 8.85742H26.3086L28.0234 8L26.3086 7.14258H26.3076C25.6836 6.83007 25.1691 6.31674 24.8564 5.69141L24 3.97656L23.1436 5.69141Z" stroke="#777777" stroke-width="1.8"/>
</svg>
