<svg width="29" height="29" viewBox="0 0 29 29" fill="none" xmlns="http://www.w3.org/2000/svg">
<path fill-rule="evenodd" clip-rule="evenodd" d="M22.6836 3.71094C22.1929 3.71094 21.7951 4.10873 21.7951 4.59942V7.26484H19.1297C18.6389 7.26484 18.2412 7.66265 18.2412 8.15332C18.2412 8.64405 18.6389 9.0418 19.1297 9.0418H21.7951V11.7072C21.7951 12.198 22.1929 12.5957 22.6836 12.5957C23.1743 12.5957 23.5721 12.198 23.5721 11.7072V9.0418H26.2375C26.7282 9.0418 27.126 8.64405 27.126 8.15332C27.126 7.66265 26.7282 7.26484 26.2375 7.26484H23.5721V4.59942C23.5721 4.10873 23.1743 3.71094 22.6836 3.71094Z" fill="#777777"/>
<path d="M12.4494 1.9502C6.32157 2.87197 1.62369 8.15796 1.62369 14.5428C1.62369 21.5761 7.32526 27.2777 14.3586 27.2777C20.7434 27.2777 26.0294 22.5798 26.9512 16.452" stroke="#777777" stroke-width="1.5" stroke-linecap="round"/>
<circle cx="9.66634" cy="14.0003" r="1.20833" fill="#777777"/>
<circle cx="19.3333" cy="14.0003" r="1.20833" fill="#777777"/>
<path d="M10.875 16.917C10.875 16.917 11.5287 19.3337 14.5 19.3337C17.4713 19.3337 18.125 16.917 18.125 16.917" stroke="#777777" stroke-width="1.5" stroke-linecap="round"/>
</svg>
