<svg width="20" height="21" viewBox="0 0 20 21" fill="none" xmlns="http://www.w3.org/2000/svg">
<mask id="path-1-inside-1_11175_21013" fill="white">
<path d="M18 14C18 14.5523 18.4477 15 19 15C19.5523 15 20 15.4477 20 16C20 16.5523 19.5523 17 19 17H1C0.447716 17 0 16.5523 0 16C0 15.4477 0.447715 15 1 15C1.55228 15 2 14.5523 2 14V8C2 5.87827 2.84285 3.84344 4.34315 2.34315C5.84344 0.842855 7.87827 0 10 0C12.1217 0 14.1566 0.842855 15.6569 2.34315C17.1571 3.84344 18 5.87827 18 8V14ZM7 20C7 19.4477 7.44772 19 8 19H12C12.5523 19 13 19.4477 13 20C13 20.5523 12.5523 21 12 21H8C7.44772 21 7 20.5523 7 20Z"/>
</mask>
<path d="M18 14C18 14.5523 18.4477 15 19 15C19.5523 15 20 15.4477 20 16C20 16.5523 19.5523 17 19 17H1C0.447716 17 0 16.5523 0 16C0 15.4477 0.447715 15 1 15C1.55228 15 2 14.5523 2 14V8C2 5.87827 2.84285 3.84344 4.34315 2.34315C5.84344 0.842855 7.87827 0 10 0C12.1217 0 14.1566 0.842855 15.6569 2.34315C17.1571 3.84344 18 5.87827 18 8V14ZM7 20C7 19.4477 7.44772 19 8 19H12C12.5523 19 13 19.4477 13 20C13 20.5523 12.5523 21 12 21H8C7.44772 21 7 20.5523 7 20Z" stroke="#555555" stroke-width="4" mask="url(#path-1-inside-1_11175_21013)"/>
</svg>
