<svg width="25" height="24" viewBox="0 0 25 24" fill="none" xmlns="http://www.w3.org/2000/svg">
<path d="M4.19434 3.5H10.8057C10.913 3.50006 10.9999 3.58703 11 3.69434V10.3057C10.9999 10.413 10.913 10.4999 10.8057 10.5H4.19434C4.08703 10.4999 4.00006 10.413 4 10.3057V3.69434C4.00006 3.58703 4.08703 3.50006 4.19434 3.5Z" stroke="#AEAEAE" stroke-width="1.5"/>
<path d="M14.1943 3.5H20.8057C20.913 3.50006 20.9999 3.58703 21 3.69434V10.3057C20.9999 10.413 20.913 10.4999 20.8057 10.5H14.1943C14.087 10.4999 14.0001 10.413 14 10.3057V3.69434C14.0001 3.58703 14.087 3.50006 14.1943 3.5Z" stroke="#AEAEAE" stroke-width="1.5"/>
<path d="M4.19434 13.5H10.8057C10.913 13.5001 10.9999 13.587 11 13.6943V20.3057C10.9999 20.413 10.913 20.4999 10.8057 20.5H4.19434C4.08703 20.4999 4.00006 20.413 4 20.3057V13.6943C4.00006 13.587 4.08703 13.5001 4.19434 13.5Z" stroke="#AEAEAE" stroke-width="1.5"/>
<path d="M14.1943 13.5H20.8057C20.913 13.5001 20.9999 13.587 21 13.6943V20.3057C20.9999 20.413 20.913 20.4999 20.8057 20.5H14.1943C14.087 20.4999 14.0001 20.413 14 20.3057V13.6943C14.0001 13.587 14.087 13.5001 14.1943 13.5Z" stroke="#AEAEAE" stroke-width="1.5"/>
</svg>
