<svg width="30" height="30" viewBox="0 0 30 30" fill="none" xmlns="http://www.w3.org/2000/svg">
<path d="M0 8C0 3.58172 3.58172 0 8 0H22C26.4183 0 30 3.58172 30 8V22C30 26.4183 26.4183 30 22 30H8C3.58172 30 0 26.4183 0 22V8Z" fill="#F7F7F7"/>
<path d="M15 3C10.7353 3 7.26562 6.46964 7.26562 10.7344C7.26562 13.6534 8.90681 16.3092 11.4844 17.6248V18.2812H18.5156V17.6248C21.0932 16.3092 22.7344 13.6534 22.7344 10.7344C22.7344 6.46964 19.2647 3 15 3Z" fill="#FFD227"/>
<path d="M12.8906 22.0312V24.8906C12.8906 26.0537 13.8369 27 15 27C16.1631 27 17.1094 26.0537 17.1094 24.8906V22.0312H12.8906Z" fill="#0A617D"/>
<path d="M15 3V18.2812H18.5156V17.6248C21.0932 16.3092 22.7344 13.6534 22.7344 10.7344C22.7344 6.46964 19.2647 3 15 3Z" fill="#FFD227"/>
<path d="M15 22.0312V27C16.1631 27 17.1094 26.0537 17.1094 24.8906V22.0312H15Z" fill="#08475E"/>
<path d="M17.9787 12.1279L17.1349 11.0029L15 12.6042L12.865 11.0029L12.0212 12.1279L14.2968 13.8346V17.6249H15.7031V13.8346L17.9787 12.1279Z" fill="#FF8E00"/>
<path d="M17.135 11.0029L15 12.6042V17.6249H15.7031V13.8346L17.9787 12.1279L17.135 11.0029Z" fill="#FF8E00"/>
<path d="M11.4844 17.625H18.5156V23.4377H11.4844V17.625Z" fill="#D0D5F4"/>
<path d="M15 17.625H18.5156V23.4377H15V17.625Z" fill="#D0D5F4"/>
<path d="M18.5156 20.5781H15H10.0781V19.1719H15H18.5156L19.9219 19.875L18.5156 20.5781Z" fill="#B4B9F1"/>
<path d="M15 19.1719H19.9219V20.5781H15V19.1719Z" fill="#B4B9F1"/>
</svg>
