<svg width="24" height="24" viewBox="0 0 24 24" fill="none" xmlns="http://www.w3.org/2000/svg">
<g clip-path="url(#clip0_9523_23426)">
<path d="M9.61174 2H14.3878C14.5903 2 14.7544 2.16414 14.7544 2.36662V5.97822C14.7544 6.1807 14.5903 6.34484 14.3878 6.34484H9.61174C9.40926 6.34484 9.24512 6.1807 9.24512 5.97822V2.36662C9.24512 2.16414 9.40926 2 9.61174 2Z" fill="#EEEFEE"/>
<path d="M11.6084 2.64355H12.3906V5.37556H11.6084V2.64355Z" fill="#EF5261"/>
<path d="M10.6338 3.61816H13.3658V4.40038H10.6338V3.61816Z" fill="#EF5261"/>
<path d="M3 10.1699H21V21.6752H3V10.1699Z" fill="#DBD8DD"/>
<path d="M5.69043 7.01562H18.309V21.6754H5.69043V7.01562Z" fill="#EEEFEE"/>
<path d="M5.31101 6.05469H18.689C18.7443 6.05469 18.7891 6.09949 18.7891 6.15476V7.34631C18.7891 7.40158 18.7443 7.44638 18.689 7.44638H5.31101C5.25574 7.44638 5.21094 7.40158 5.21094 7.34631V6.15476C5.21098 6.09949 5.25578 6.05469 5.31101 6.05469Z" fill="#DBD8DD"/>
<path d="M8.25684 15.9219H15.7426V21.6745H8.25684V15.9219Z" fill="#BBBBCD"/>
<path d="M8.62793 15.8301H15.3715V21.6756H8.62793V15.8301Z" fill="#9A9EAF"/>
<path d="M7.90737 15.3652H16.0918C16.1569 15.3652 16.2096 15.418 16.2096 15.4831V15.9898C16.2096 16.0549 16.1569 16.1076 16.0918 16.1076H7.90737C7.8423 16.1076 7.78955 16.0549 7.78955 15.9898V15.4831C7.78959 15.418 7.84234 15.3652 7.90737 15.3652Z" fill="#828A9E"/>
<path d="M11.9189 16.1074H12.0814V21.6746H11.9189V16.1074Z" fill="#62667C"/>
<path d="M7.02441 8.26758H9.5527V10.7959H7.02441V8.26758Z" fill="#69B0EE"/>
<path opacity="0.5" d="M8.28997 8.26758L7.46124 10.7951H7.3252L8.15369 8.26758H8.28997Z" fill="#EEEFEE"/>
<path opacity="0.5" d="M9.16968 8.26758L8.3409 10.7951H7.77441L8.60319 8.26758H9.16968Z" fill="#EEEFEE"/>
<path d="M10.7354 8.26758H13.2636V10.7959H10.7354V8.26758Z" fill="#69B0EE"/>
<path opacity="0.5" d="M12.0014 8.26758L11.1729 10.7951H11.0366L11.8654 8.26758H12.0014Z" fill="#EEEFEE"/>
<path opacity="0.5" d="M12.8811 8.26758L12.0523 10.7951H11.4858L12.3143 8.26758H12.8811Z" fill="#EEEFEE"/>
<path d="M14.4468 8.26758H16.9751V10.7959H14.4468V8.26758Z" fill="#69B0EE"/>
<path opacity="0.5" d="M15.7129 8.26758L14.8841 10.7951H14.748L15.5768 8.26758H15.7129Z" fill="#EEEFEE"/>
<path opacity="0.5" d="M16.5928 8.26758L15.764 10.7951H15.1973L16.026 8.26758H16.5928Z" fill="#EEEFEE"/>
<path d="M7.02441 11.8164H9.5527V14.3447H7.02441V11.8164Z" fill="#69B0EE"/>
<path opacity="0.5" d="M8.28997 11.8164L7.46124 14.344H7.3252L8.15369 11.8164H8.28997Z" fill="#EEEFEE"/>
<path opacity="0.5" d="M9.16968 11.8164L8.3409 14.344H7.77441L8.60319 11.8164H9.16968Z" fill="#EEEFEE"/>
<path d="M10.7354 11.8164H13.2636V14.3447H10.7354V11.8164Z" fill="#69B0EE"/>
<path opacity="0.5" d="M12.0014 11.8164L11.1729 14.344H11.0366L11.8654 11.8164H12.0014Z" fill="#EEEFEE"/>
<path opacity="0.5" d="M12.8811 11.8164L12.0523 14.344H11.4858L12.3143 11.8164H12.8811Z" fill="#EEEFEE"/>
<path d="M14.4468 11.8164H16.9751V14.3447H14.4468V11.8164Z" fill="#69B0EE"/>
<path opacity="0.5" d="M15.7129 11.8164L14.8841 14.344H14.748L15.5768 11.8164H15.7129Z" fill="#EEEFEE"/>
<path opacity="0.5" d="M16.5928 11.8164L15.764 14.344H15.1973L16.026 11.8164H16.5928Z" fill="#EEEFEE"/>
</g>
<defs>
<clipPath id="clip0_9523_23426">
<rect width="24" height="24" fill="white"/>
</clipPath>
</defs>
</svg>
