<svg width="30" height="30" viewBox="0 0 30 30" fill="none" xmlns="http://www.w3.org/2000/svg">
<path d="M22.7765 4.44434H5.76259C4.42023 4.44434 3.33203 5.53253 3.33203 6.87489V23.8888C3.33203 25.2311 4.42023 26.3193 5.76259 26.3193H22.7765C24.1188 26.3193 25.207 25.2311 25.207 23.8888V6.87489C25.207 5.53253 24.1188 4.44434 22.7765 4.44434Z" stroke="#777777" stroke-width="2" stroke-linecap="round" stroke-linejoin="round"/>
<path d="M6.97656 20.2434L9.40712 17.8128L11.8377 20.2434L17.9141 14.167L21.5599 17.8128" stroke="#777777" stroke-width="2" stroke-linecap="round" stroke-linejoin="round"/>
<path d="M10.6259 14.1668C11.9682 14.1668 13.0564 13.0786 13.0564 11.7362C13.0564 10.3939 11.9682 9.30566 10.6259 9.30566C9.28351 9.30566 8.19531 10.3939 8.19531 11.7362C8.19531 13.0786 9.28351 14.1668 10.6259 14.1668Z" fill="#777777"/>
</svg>
