<svg width="24" height="24" viewBox="0 0 24 24" fill="none" xmlns="http://www.w3.org/2000/svg">
<path d="M17.293 5.29321C17.6835 4.90269 18.3165 4.90269 18.707 5.29321C19.0973 5.68376 19.0975 6.31683 18.707 6.70728L13.4141 12.0002L18.707 17.2932C19.0973 17.6838 19.0975 18.3168 18.707 18.7073C18.3166 19.0977 17.6835 19.0976 17.293 18.7073L12 13.4143L6.70703 18.7073C6.31658 19.0977 5.68351 19.0976 5.29297 18.7073C4.90244 18.3168 4.90244 17.6837 5.29297 17.2932L10.5859 12.0002L5.29297 6.70728C4.90244 6.31675 4.90244 5.68374 5.29297 5.29321C5.68349 4.90269 6.31651 4.90269 6.70703 5.29321L12 10.5862L17.293 5.29321Z" fill="#555555"/>
</svg>
