<svg width="57" height="57" viewBox="0 0 57 57" fill="none" xmlns="http://www.w3.org/2000/svg">
<g clip-path="url(#clip0_10946_40219)">
<g clip-path="url(#clip1_10946_40219)">
<path d="M43.7418 18.7923C42.9295 13.4132 40.4078 12.9866 35.5029 7.72655C34.7082 6.87478 33.4391 6.67203 32.4208 7.22871C31.1074 5.70349 29.67 3.66866 28.4218 1.20026C28.0498 0.466164 27.3012 0 26.4784 0H12.8103C11.1647 0 10.1165 1.75966 10.9004 3.20703L16.8021 14.1026C16.1594 14.4312 15.7195 15.0621 15.6353 15.7835C14.8543 22.4971 14.8795 22.7053 14.5509 23.8377C13.7068 26.7317 11.6809 29.0933 9.06829 30.4437C6.02329 32.0199 4.16452 35.1557 4.17583 38.5169C4.18217 40.4476 5.77256 42 7.70419 42H18.0693C19.9276 42 21.69 41.3275 23.065 40.1534L40.8987 25.9341C43.0439 24.2242 44.1519 21.5042 43.7418 18.7923Z" fill="#FFEBD2"/>
<path d="M40.8987 25.9343L23.065 40.1537C21.69 41.3277 19.9276 42.0002 18.0693 42.0002H7.70419C5.77256 42.0002 4.18217 40.4479 4.17583 38.5171C4.16452 35.1529 6.02655 32.0184 9.06829 30.4439C11.9897 28.934 14.0703 26.2148 14.7283 23.1364C14.8784 22.4529 14.8347 22.666 15.6353 15.7837C15.7195 15.0621 16.1652 14.398 16.8826 14.063L17.538 13.7607C18.4893 13.3217 19.6117 13.5117 20.3685 14.2368C22.5545 16.3341 25.8339 16.7523 28.1774 15.2976C30.0176 14.1553 31.102 11.9693 31.0178 9.63942C30.9304 7.25574 33.876 5.98306 35.5029 7.72679C40.4077 12.9867 42.9295 13.4134 43.7418 18.7925C44.1519 21.5044 43.0439 24.2245 40.8987 25.9343Z" fill="#80AAFF"/>
<path d="M20.5385 14.5044C20.9549 15.1596 20.9401 15.9965 20.5101 16.6428C20.3202 16.9283 20.2006 17.2547 20.1611 17.594C19.3644 24.4287 19.394 24.8674 18.8441 26.3551C17.898 28.9219 15.9958 31.0129 13.5941 32.2541C10.5491 33.8304 8.69029 36.9662 8.7016 40.3274C8.70432 40.9347 8.86272 41.5041 9.1388 42.0001H7.70419C5.77256 42.0001 4.18217 40.4478 4.17583 38.517C4.16452 35.1528 6.02655 32.0183 9.06829 30.4438C12.1815 28.8347 14.4685 25.7853 14.8985 22.1171C15.1556 19.9246 15.6353 15.7836 15.6353 15.7836C15.7195 15.0622 16.1594 14.4313 16.8021 14.1027C16.8501 14.0763 16.8661 14.0708 17.538 13.7606C18.6177 13.2622 19.9553 13.5867 20.5385 14.5044Z" fill="#9CBCFF"/>
<path d="M43.7418 18.7924C44.1519 21.5043 43.0439 24.2243 40.8987 25.9342L23.065 40.1536C21.69 41.3276 19.9276 42.0001 18.0693 42.0001H7.7042C5.77256 42.0001 4.18217 40.4477 4.17583 38.517C4.17402 37.9793 4.21928 37.4498 4.3107 36.9312H17.7208C19.0406 36.9312 20.3196 36.4813 21.3488 35.6549L37.4789 22.7009C38.4773 21.899 38.9815 20.6317 38.8068 19.3636L38.3995 16.4073C38.2338 15.2043 38.6783 13.9986 39.5844 13.1903L40.4063 12.458C42.1985 14.1833 43.2648 15.6334 43.7418 18.7924Z" fill="#42434D"/>
<path d="M20.0699 20.1509C18.5183 20.6473 16.911 20.5664 15.418 19.9759C15.2649 19.9153 15.171 19.7597 15.1899 19.5961L15.2766 18.8491C15.3042 18.6115 15.55 18.4651 15.7717 18.5551C16.4717 18.8391 17.8595 19.3427 19.6264 18.7714C20.0075 18.6492 20.4148 18.8592 20.5379 19.2394C20.6601 19.6205 20.4501 20.0287 20.0699 20.1509Z" fill="#EEF7FF"/>
<path d="M20.0977 25.1204C18.2527 25.7915 16.2834 25.6159 14.5883 24.6986C14.4328 24.6144 14.3612 24.4305 14.4176 24.2629C14.4928 24.0392 14.5626 23.8071 14.6238 23.5739C14.6833 23.3472 14.9384 23.2361 15.1447 23.3472C15.8964 23.7523 17.5054 24.5247 19.6017 23.7591C19.9782 23.6224 20.3937 23.8161 20.5304 24.1918C20.6671 24.5682 20.4734 24.9837 20.0977 25.1204Z" fill="#EEF7FF"/>
<path d="M8.81167 41.1113C8.91161 41.567 8.57325 42.0001 8.10682 42.0001H7.7042C5.77256 42.0001 4.18217 40.4477 4.17583 38.517C4.17402 37.9793 4.21928 37.4498 4.3107 36.9312H8.34107C8.82145 36.9312 9.16867 37.39 9.03751 37.8522C8.7446 38.8841 8.58764 40.0902 8.81167 41.1113Z" fill="#585966"/>
<path d="M16.229 36.9311H4.31055C4.79029 34.173 6.53093 31.7571 9.06813 30.4437C9.36412 30.2907 9.65233 30.1251 9.93112 29.9468C13.4654 30.6794 15.8421 33.5572 16.229 36.9311Z" fill="#CBE3FA"/>
<path d="M13.2851 32.4499C11.6758 33.4311 10.3813 34.5713 9.48732 36.6049C9.40042 36.8025 9.20581 36.9311 8.99002 36.9311H4.31055C4.79029 34.173 6.53093 31.7571 9.06813 30.4437C9.36412 30.2907 9.65233 30.1251 9.93112 29.9468C11.2421 30.2186 12.4037 30.7898 13.3485 31.5655C13.6379 31.8032 13.6049 32.2551 13.2851 32.4499Z" fill="#EEF7FF"/>
<path d="M21.2921 14.9836C20.968 14.7645 20.6575 14.5156 20.367 14.2368C19.6103 13.5117 18.4878 13.3217 17.5365 13.7607C17.5365 13.7607 16.8269 14.0883 16.8006 14.1028L8.75867 -0.499532C7.97479 -1.9469 11.1632 0.000238419 12.8088 0.000238419C13.7126 0.000238419 14.4091 0.757234 14.384 1.66069C14.3739 2.02276 14.4559 2.39668 14.6481 2.75196L21.2921 14.9836Z" fill="#FFF3E4"/>
</g>
<g clip-path="url(#clip2_10946_40219)">
<path d="M53.2559 48.9671C55.8668 44.5197 54.2637 42.7009 53.7887 35.8994C53.7114 34.7977 52.8975 33.8912 51.8152 33.6937C51.7576 31.7864 51.9127 29.4298 52.4659 26.8666C52.6299 26.1038 52.3565 25.3138 51.7504 24.8228L41.6812 16.6678C40.469 15.686 38.6469 16.3569 38.3608 17.8909L36.2077 29.4388C35.5382 29.2974 34.8377 29.4997 34.3453 29.9809C29.7643 34.4608 29.6586 34.6292 28.7409 35.2674C26.3923 36.8957 23.4908 37.4267 20.7605 36.8627C17.5768 36.2072 14.3365 37.4082 12.3394 39.8911C11.1921 41.3173 11.4375 43.4098 12.8606 44.5623L20.4964 50.7466C21.8654 51.8553 23.565 52.4114 25.2784 52.3669L46.9002 52.532C49.5008 52.5523 51.9399 51.2095 53.2559 48.9671Z" fill="#FFEBD2"/>
<path d="M46.5036 51.9702L24.8818 51.8051C23.1684 51.8496 21.4689 51.2935 20.0999 50.1848L12.464 44.0005C11.041 42.848 10.7955 40.7554 11.9428 39.3293C13.9418 36.8442 17.1837 35.646 20.3639 36.3009C23.417 36.9316 26.5721 36.1698 28.8936 34.2946C29.412 33.8806 29.2526 34.0115 33.9487 29.4191C34.4413 28.9377 35.1658 28.7144 35.8943 28.8957L36.5574 29.064C37.5202 29.3082 38.2336 30.1179 38.3585 31.1035C38.7176 33.9528 40.884 36.2175 43.4783 36.5442C45.5155 36.8006 47.6187 35.8372 48.9468 34.0706C50.3046 32.2624 53.2339 33.0823 53.3921 35.3376C53.8671 42.1389 55.4703 43.9578 52.8593 48.4053C51.5433 50.6477 49.1042 51.9905 46.5036 51.9702Z" fill="#F2FF65"/>
<path d="M38.3248 31.4025C38.2407 32.1336 37.7304 32.7413 37.028 32.9609C36.7178 33.0579 36.435 33.227 36.2034 33.4533C31.5386 38.0131 31.2986 38.3539 30.0058 39.1218C27.7774 40.4482 25.1285 40.8536 22.6186 40.3351C19.4349 39.6795 16.1946 40.8806 14.1975 43.3635C13.8372 43.8126 13.6141 44.3265 13.5216 44.8567L12.4647 44.0007C11.0417 42.8482 10.7963 40.7557 11.9436 39.3296C13.9425 36.8444 17.1844 35.6463 20.3647 36.3012C23.6182 36.9733 27.1224 36.0913 29.6278 33.6456C31.1253 32.1837 33.9494 29.4194 33.9494 29.4194C34.4419 28.9381 35.1424 28.7358 35.8119 28.8772C35.863 28.8864 35.8781 28.8919 36.5582 29.0642C37.6509 29.3413 38.4428 30.3784 38.3248 31.4025Z" fill="#FBFFD2"/>
<path d="M52.8587 48.4052C51.5428 50.6477 49.1037 51.9905 46.5031 51.9701L24.8813 51.805C23.1679 51.8495 21.4683 51.2935 20.0993 50.1847L12.4634 44.0004C11.0404 42.8479 10.795 40.7554 11.9423 39.3293C12.2618 38.9321 12.611 38.569 12.9878 38.2414L22.8669 46.2425C23.8392 47.0299 25.0498 47.4616 26.3011 47.4669L45.9129 47.5479C47.1269 47.5527 48.2544 46.92 48.8824 45.8815L50.3462 43.4606C50.9419 42.4756 51.9887 41.8525 53.1384 41.7977L54.1808 41.7486C54.4718 44.0889 54.3921 45.7933 52.8587 48.4052Z" fill="#42434D"/>
<path d="M34.6111 35.2837C33.1719 34.7237 32.0361 33.705 31.2886 32.3792C31.2119 32.2432 31.2356 32.0726 31.3471 31.9634L31.8567 31.4648C32.0188 31.3062 32.2872 31.345 32.3968 31.5436C32.7431 32.1704 33.465 33.3695 35.1075 34.0029C35.4611 34.1402 35.6359 34.538 35.4998 34.8915C35.3623 35.2451 34.9641 35.4205 34.6111 35.2837Z" fill="#CDDF00"/>
<path d="M31.6655 38.96C29.9059 38.3535 28.5599 37.0492 27.8584 35.362C27.7941 35.2072 27.851 35.0291 27.9926 34.9392C28.1814 34.8193 28.3714 34.6899 28.5556 34.5547C28.7347 34.4232 28.9889 34.4935 29.0746 34.6985C29.3866 35.4454 30.1112 36.9744 32.1123 37.6611C32.4712 37.7851 32.6617 38.1757 32.5383 38.534C32.4143 38.8929 32.0238 39.0834 31.6655 38.96Z" fill="#CDDF00"/>
<path d="M13.8098 44.0066C13.6115 44.4019 13.1039 44.5191 12.7602 44.2408L12.4636 44.0006C11.0406 42.8481 10.7952 40.7556 11.9425 39.3295C12.262 38.9323 12.6113 38.5692 12.9881 38.2416L15.9572 40.6463C16.3111 40.9329 16.2931 41.4781 15.9207 41.7404C15.0893 42.3258 14.254 43.1207 13.8098 44.0066Z" fill="#585966"/>
<path d="M21.7693 45.3525L12.9891 38.2415C14.9881 36.4959 17.7119 35.7546 20.3646 36.3009C20.6739 36.3648 20.9851 36.4147 21.2969 36.4497C23.4634 39.0981 23.4972 42.6362 21.7693 45.3525Z" fill="#CBE3FA"/>
<path d="M22.2742 40.2949C20.5033 40.0575 18.8693 40.1251 16.9974 41.0898C16.8155 41.1835 16.5954 41.1622 16.4364 41.0334L12.9891 38.2415C14.9881 36.4959 17.7119 35.7546 20.3646 36.3009C20.6739 36.3648 20.9851 36.4147 21.2969 36.4497C22.1005 37.4321 22.6154 38.5459 22.8486 39.6811C22.92 40.0289 22.626 40.3421 22.2742 40.2949Z" fill="#EEF7FF"/>
<path d="M38.5958 32.2059C38.4877 31.8512 38.4075 31.4826 38.3598 31.1038C38.2349 30.1182 37.5215 29.3085 36.5587 29.0643C36.5587 29.0643 35.8404 28.8823 35.8124 28.8773L37.9655 17.3294C38.2516 15.7954 40.0737 15.1245 41.286 16.1063C41.9518 16.6456 42.0132 17.6188 41.4557 18.2694C41.2322 18.5301 41.0696 18.8545 40.9992 19.2309L38.5958 32.2059Z" fill="#FFF3E4"/>
</g>
<rect x="49.207" y="-12.9771" width="13.9056" height="38.8502" transform="rotate(15.5479 49.207 -12.9771)" fill="#FFEBD2"/>
<rect width="3.45967" height="39.9316" transform="matrix(-0.963407 -0.268044 -0.268044 0.963407 50.7246 -13.6528)" fill="#FFF3E4"/>
<path d="M47.0312 -14.4136L43.9384 -14.9998L36.5601 23.929L35.6412 28.7774L38.734 29.3636L47.0312 -14.4136Z" fill="#FFF3E4"/>
</g>
<defs>
<clipPath id="clip0_10946_40219">
<rect width="57" height="57" fill="white"/>
</clipPath>
<clipPath id="clip1_10946_40219">
<rect width="42" height="42" fill="white" transform="translate(3)"/>
</clipPath>
<clipPath id="clip2_10946_40219">
<rect width="39.8158" height="39.8158" fill="white" transform="translate(34.0586 10.2534) rotate(39.004)"/>
</clipPath>
</defs>
</svg>
