<svg width="57" height="57" viewBox="0 0 57 57" fill="none" xmlns="http://www.w3.org/2000/svg">
<g clip-path="url(#clip0_10946_40246)">
<g clip-path="url(#clip1_10946_40246)">
<path d="M52.5009 21.3718C51.5338 14.9681 48.5318 14.4602 42.6927 8.19828C41.7466 7.18427 40.2358 6.94289 39.0235 7.6056C37.4599 5.78987 35.7487 3.36746 34.2627 0.428879C33.8198 -0.445043 32.9287 -1 31.9491 -1H15.6776C13.7185 -1 12.4707 1.09483 13.4039 2.81789L20.4297 15.7888C19.6647 16.18 19.141 16.931 19.0407 17.7899C18.111 25.7822 18.141 26.0302 17.7498 27.3782C16.7448 30.8235 14.3331 33.6349 11.2229 35.2425C7.59785 37.119 5.38503 40.852 5.3985 44.8534C5.40604 47.1519 7.29936 49 9.59893 49H21.9384C24.1507 49 26.2487 48.1994 27.8856 46.8017L49.1162 29.8739C51.67 27.8384 52.989 24.6002 52.5009 21.3718Z" fill="#FFEBD2"/>
<path d="M49.1162 29.8741L27.8856 46.8019C26.2487 48.1995 24.1507 49.0001 21.9384 49.0001H9.59893C7.29936 49.0001 5.40604 47.1521 5.3985 44.8536C5.38503 40.8485 7.60173 37.1171 11.2229 35.2426C14.7008 33.4451 17.1776 30.2079 17.961 26.5432C18.1397 25.7295 18.0876 25.9832 19.0407 17.79C19.141 16.931 19.6716 16.1403 20.5257 15.7415L21.3058 15.3816C22.4384 14.859 23.7746 15.0853 24.6754 15.9484C27.2778 18.4452 31.1819 18.943 33.9718 17.2113C36.1625 15.8514 37.4535 13.2491 37.3532 10.4754C37.2491 7.63764 40.7558 6.12256 42.6927 8.19842C48.5317 14.4603 51.5338 14.9681 52.5009 21.3719C52.989 24.6004 51.67 27.8385 49.1162 29.8741Z" fill="#80AAFF"/>
<path d="M24.8779 16.2672C25.3736 17.0471 25.3559 18.0435 24.8441 18.8129C24.618 19.1528 24.4757 19.5413 24.4286 19.9452C23.4802 28.0818 23.5153 28.604 22.8607 30.3752C21.7344 33.4309 19.4698 35.9201 16.6107 37.3978C12.9857 39.2743 10.7729 43.0074 10.7863 47.0088C10.7896 47.7318 10.9781 48.4096 11.3068 49.0002H9.59893C7.29936 49.0002 5.40604 47.1521 5.3985 44.8536C5.38503 40.8485 7.60173 37.1171 11.2229 35.2426C14.9291 33.3271 17.6516 29.6968 18.1636 25.3299C18.4696 22.7198 19.0407 17.79 19.0407 17.79C19.141 16.9312 19.6647 16.1801 20.4297 15.789C20.4869 15.7575 20.5059 15.7509 21.3058 15.3816C22.5912 14.7883 24.1836 15.1746 24.8779 16.2672Z" fill="#9CBCFF"/>
<path d="M52.5009 21.372C52.989 24.6005 51.67 27.8386 49.1162 29.8742L27.8856 46.802C26.2487 48.1996 24.1507 49.0002 21.9384 49.0002H9.59893C7.29936 49.0002 5.40604 47.1522 5.3985 44.8537C5.39634 44.2136 5.45022 43.5832 5.55906 42.9658H21.5235C23.0946 42.9658 24.6172 42.4302 25.8425 41.4464L45.045 26.025C46.2336 25.0703 46.8338 23.5617 46.6259 22.052L46.141 18.5326C45.9438 17.1005 46.4728 15.6651 47.5515 14.7028L48.53 13.8311C50.6636 15.8849 51.933 17.6112 52.5009 21.372Z" fill="#42434D"/>
<path d="M24.3221 22.9893C22.475 23.5802 20.5616 23.4839 18.7842 22.7809C18.6019 22.7088 18.4901 22.5236 18.5126 22.3288L18.6159 21.4395C18.6487 21.1566 18.9413 20.9824 19.2052 21.0895C20.0386 21.4275 21.6908 22.0271 23.7942 21.3471C24.2479 21.2016 24.7328 21.4516 24.8793 21.9042C25.0247 22.3578 24.7747 22.8438 24.3221 22.9893Z" fill="#EEF7FF"/>
<path d="M24.3532 28.9054C22.1568 29.7043 19.8124 29.4952 17.7944 28.4032C17.6092 28.303 17.524 28.0841 17.5911 27.8846C17.6807 27.6183 17.7638 27.3419 17.8366 27.0643C17.9075 26.7945 18.2112 26.6622 18.4568 26.7945C19.3516 27.2767 21.2671 28.1962 23.7627 27.2848C24.211 27.1221 24.7056 27.3527 24.8683 27.7999C25.031 28.248 24.8004 28.7427 24.3532 28.9054Z" fill="#EEF7FF"/>
<path d="M10.9174 47.9417C11.0363 48.4842 10.6335 48.9998 10.0782 48.9998H9.59893C7.29936 48.9998 5.40604 47.1518 5.3985 44.8533C5.39634 44.2132 5.45022 43.5828 5.55906 42.9653H10.3571C10.929 42.9653 11.3424 43.5116 11.1862 44.0618C10.8375 45.2902 10.6507 46.7261 10.9174 47.9417Z" fill="#585966"/>
<path d="M19.7472 42.9655H5.55859C6.12971 39.6821 8.20191 36.8061 11.2224 35.2425C11.5748 35.0604 11.9179 34.8632 12.2498 34.6509C16.4572 35.5231 19.2866 38.949 19.7472 42.9655Z" fill="#CBE3FA"/>
<path d="M16.2426 37.6308C14.3268 38.7988 12.7856 40.1563 11.7214 42.5772C11.618 42.8124 11.3863 42.9655 11.1294 42.9655H5.55859C6.12971 39.6821 8.20191 36.8061 11.2224 35.2425C11.5748 35.0604 11.9179 34.8632 12.2498 34.6509C13.8104 34.9745 15.1933 35.6544 16.3181 36.5779C16.6626 36.8609 16.6232 37.3988 16.2426 37.6308Z" fill="#EEF7FF"/>
<path d="M25.7764 16.8373C25.3906 16.5765 25.021 16.2802 24.6751 15.9483C23.7743 15.0851 22.4381 14.8588 21.3055 15.3815C21.3055 15.3815 20.4607 15.7716 20.4294 15.7888L13.4036 2.81789C12.4704 1.09483 13.7182 -1 15.6773 -1C16.7532 -1 17.5823 -0.0988147 17.5525 0.976724C17.5405 1.40776 17.6382 1.85291 17.8669 2.27586L25.7764 16.8373Z" fill="#FFF3E4"/>
</g>
</g>
<defs>
<clipPath id="clip0_10946_40246">
<rect width="57" height="57" fill="white"/>
</clipPath>
<clipPath id="clip1_10946_40246">
<rect width="50" height="50" fill="white" transform="translate(4 -1)"/>
</clipPath>
</defs>
</svg>
