<svg width="26" height="20" viewBox="0 0 26 20" fill="none" xmlns="http://www.w3.org/2000/svg">
<g clip-path="url(#clip0_8657_70891)">
<path d="M20.2124 6.94713C21.9536 10.1569 22.6342 14.5929 20.1744 16.2244C18.7686 17.1568 15.8063 16.6336 14.2544 15.8409C13.0912 15.1951 11.9408 15.5718 11.511 15.8409C9.9744 16.6271 7.13093 17.1567 5.72534 16.2244C3.26629 14.5929 3.81276 10.1569 5.55473 6.94621C5.60976 6.84509 5.66722 6.74562 5.72534 6.64792C8.05858 3.24182 10.3146 9.40704 12.8778 9.33245C15.441 9.25787 18.1156 3.45235 20.1744 6.87942C20.1867 6.90255 20.1999 6.92401 20.2124 6.94713Z" fill="white"/>
<path d="M12.8784 0C12.8902 0.00626649 19.7023 3.613 22.3826 7.51315C22.3988 7.53951 23.5144 3.91369 23.5306 3.94004C25.799 7.59558 23.942 15.7158 20.7373 17.5739C18.7706 18.7142 16.3357 17.3724 14.2256 15.8253C15.7694 16.6263 18.76 17.1619 20.1745 16.2237C22.6344 14.5922 21.9537 10.1562 20.2125 6.94643C20.2001 6.92326 20.1869 6.90185 20.1745 6.87872C18.1157 3.45164 15.4411 9.25712 12.8779 9.33175C10.3147 9.40634 8.05874 3.24111 5.7255 6.64722C5.66737 6.74492 5.60991 6.84434 5.55488 6.94551C3.81292 10.1562 3.26645 14.5922 5.7255 16.2237C7.13109 17.156 9.97456 16.6264 11.5112 15.8402C9.40773 17.381 6.98896 18.7106 5.0286 17.5739C1.8249 15.7158 -0.328665 7.95185 1.94079 4.29531C2.01249 4.18012 3.48231 7.36094 3.55805 7.24966C6.59848 3.36973 12.8588 0.0104776 12.8784 0Z" fill="#70DADA"/>
<path d="M5.55488 6.94551C5.60991 6.84434 5.66737 6.74492 5.7255 6.64722C6.96285 4.84094 9.42971 6.94551 9.42971 6.94551L12.8784 0C12.8784 0 6.59848 3.36973 3.55805 7.24966C3.48231 7.36094 2.01249 4.18012 1.94079 4.29531C-0.328664 7.95185 1.8249 15.7158 5.0286 17.5739C6.98896 18.7106 9.40773 17.381 11.5112 15.8402C9.97456 16.6264 7.13109 17.156 5.7255 16.2237C3.26645 14.5922 3.81292 10.1562 5.55488 6.94551Z" fill="#2ECACA"/>
<path d="M3.55805 7.24939C3.48231 7.36067 2.01249 4.17986 1.9408 4.29505C0.159832 7.16452 1.10272 12.5635 3.13943 15.6528C2.25965 14.2396 1.11169 10.5805 3.55805 7.24939Z" fill="#239C9C"/>
<path d="M18.4267 10.8487C18.4267 11.7332 17.6428 12.4502 16.6757 12.4502C15.7087 12.4502 14.9248 11.7332 14.9248 10.8487C14.9248 9.96412 15.7087 9.24707 16.6757 9.24707C17.6428 9.24707 18.4267 9.96412 18.4267 10.8487Z" fill="#555A66"/>
<path d="M10.2547 10.8487C10.2547 11.7332 9.51431 12.4502 8.60096 12.4502C7.68767 12.4502 6.94727 11.7332 6.94727 10.8487C6.94727 9.96412 7.68767 9.24707 8.60096 9.24707C9.51431 9.24707 10.2547 9.96412 10.2547 10.8487Z" fill="#555A66"/>
<path d="M14.3563 13.1206C14.3563 14.0052 13.6159 14.7222 12.7025 14.7222C11.7892 14.7222 11.0488 14.0052 11.0488 13.1206C11.0488 12.2361 11.7892 14.1243 12.7025 14.1243C13.6159 14.1243 14.3563 12.2361 14.3563 13.1206Z" fill="#AEAEAE"/>
<path d="M7.95312 10.0279C7.95312 10.3119 8.1926 10.5422 8.48799 10.5422C8.78338 10.5422 9.0228 10.3119 9.0228 10.0279C9.0228 9.74389 8.78338 9.51367 8.48799 9.51367C8.1926 9.51367 7.95312 9.74389 7.95312 10.0279Z" fill="#BBBDC2"/>
<path d="M15.9756 10.0279C15.9756 10.3119 16.2151 10.5422 16.5104 10.5422C16.8058 10.5422 17.0453 10.3119 17.0453 10.0279C17.0453 9.74389 16.8058 9.51367 16.5104 9.51367C16.2151 9.51367 15.9756 9.74389 15.9756 10.0279Z" fill="#BBBDC2"/>
</g>
<defs>
<clipPath id="clip0_8657_70891">
<rect width="24" height="18" fill="white" transform="translate(1)"/>
</clipPath>
</defs>
</svg>
