<svg width="30" height="30" viewBox="0 0 30 30" fill="none" xmlns="http://www.w3.org/2000/svg">
<rect width="30" height="30" rx="8" fill="#F7F7F7"/>
<g clip-path="url(#clip0_8164_16074)">
<path d="M22.6562 8.42969V20.2266C22.6562 20.5546 22.3985 20.8125 22.0703 20.8125C21.7421 20.8125 21.4844 20.5546 21.4844 20.2266V8.42969C21.4844 7.45699 20.6993 6.67188 19.7266 6.67188C18.7539 6.67188 17.9688 7.45699 17.9688 8.42969V21.3984C17.9688 23.6602 16.1289 25.5 13.8672 25.5C12.3671 25.5 11.0273 24.6914 10.3125 23.4961C9.9375 22.8866 9.72656 22.1601 9.72656 21.3984V19.0547C9.72656 18.7265 9.98434 18.4688 10.3125 18.4688C10.6407 18.4688 10.8984 18.7265 10.8984 19.0547V21.3984C10.8984 23.0156 12.25 24.3281 13.8672 24.3281C15.4844 24.3281 16.7969 23.0156 16.7969 21.3984V8.42969C16.7969 6.8125 18.1094 5.5 19.7266 5.5C21.3438 5.5 22.6562 6.8125 22.6562 8.42969Z" fill="#575F64"/>
<path d="M22.6562 8.42969V20.2266C22.6562 20.5546 22.3985 20.8125 22.0703 20.8125C21.7421 20.8125 21.4844 20.5546 21.4844 20.2266V8.42969C21.4844 7.45699 20.6993 6.67188 19.7266 6.67188C18.7539 6.67188 17.9688 7.45699 17.9688 8.42969V21.3984C17.9688 23.6602 16.1289 25.5 13.8672 25.5C12.3671 25.5 11.0273 24.6914 10.3125 23.4961V18.4688C10.6407 18.4688 10.8984 18.7265 10.8984 19.0547V21.3984C10.8984 23.0156 12.25 24.3281 13.8672 24.3281C15.4844 24.3281 16.7969 23.0156 16.7969 21.3984V8.42969C16.7969 6.8125 18.1094 5.5 19.7266 5.5C21.3438 5.5 22.6562 6.8125 22.6562 8.42969Z" fill="#474F54"/>
<path d="M12.0703 16.125V19.0547C12.0703 19.3828 11.8125 19.6406 11.4844 19.6406H9.14062C8.81246 19.6406 8.55469 19.3828 8.55469 19.0547V16.125H12.0703Z" fill="#ACACAC"/>
<path d="M12.0703 16.125V19.0547C12.0703 19.3828 11.8125 19.6406 11.4844 19.6406H10.3125V16.125H12.0703Z" fill="#8B8B8B"/>
<path d="M22.0703 19.6406C20.4531 19.6406 19.1406 20.9531 19.1406 22.5703C19.1406 24.1875 20.4531 25.5 22.0703 25.5C23.6875 25.5 25 24.1875 25 22.5703C25 20.9531 23.6875 19.6406 22.0703 19.6406Z" fill="#ADADAD"/>
<path d="M25 22.5703C25 24.1875 23.6875 25.5 22.0703 25.5V19.6406C23.6875 19.6406 25 20.9531 25 22.5703Z" fill="#9C9C9C"/>
<path d="M22.0703 20.8125C21.0976 20.8125 20.3125 21.5976 20.3125 22.5703C20.3125 23.5429 21.0976 24.3281 22.0703 24.3281C23.043 24.3281 23.8281 23.5429 23.8281 22.5703C23.8281 21.5976 23.043 20.8125 22.0703 20.8125Z" fill="#D2D2D2"/>
<path d="M23.8281 22.5703C23.8281 23.5429 23.043 24.3281 22.0703 24.3281V20.8125C23.043 20.8125 23.8281 21.5976 23.8281 22.5703Z" fill="#D2D2D2"/>
<path d="M22.6562 22.5703C22.6562 22.8984 22.3985 23.1562 22.0703 23.1562C21.7421 23.1562 21.4844 22.8984 21.4844 22.5703C21.4844 22.2421 21.7421 21.9844 22.0703 21.9844C22.3985 21.9844 22.6562 22.2421 22.6562 22.5703Z" fill="#9C9C9C"/>
<path d="M22.6562 22.5703C22.6562 22.8984 22.3985 23.1562 22.0703 23.1562V21.9844C22.3985 21.9844 22.6562 22.2421 22.6562 22.5703Z" fill="#9C9C9C"/>
<path d="M15.625 8.42971V10.668C15.625 13.1289 14.2149 15.4102 12.0235 16.5117L10.5703 17.2383C10.4883 17.2734 10.4062 17.2969 10.3125 17.2969C10.2188 17.2969 10.1367 17.2734 10.0547 17.2383L8.60152 16.5117C6.41012 15.4102 5 13.1289 5 10.668V8.42971C5 8.20706 5.12891 8.00784 5.32816 7.90237L6.61719 7.25784C6.91016 7.11721 7.26172 7.23436 7.4023 7.51561C7.55465 7.80858 7.4375 8.16014 7.14453 8.30081L6.17188 8.79299V10.668C6.17188 12.6836 7.32422 14.5664 9.12891 15.4571L10.3125 16.0547L11.4961 15.4571C13.3007 14.5664 14.4531 12.6836 14.4531 10.668V8.79299L13.4414 8.30081C13.1484 8.1601 13.0312 7.80858 13.1836 7.51561C13.3242 7.23436 13.7148 7.11721 14.0078 7.25784L15.2968 7.90237C15.4961 8.00784 15.625 8.20706 15.625 8.42971Z" fill="#ACACAC"/>
<path d="M15.625 8.42971V10.668C15.625 13.1289 14.2149 15.4102 12.0235 16.5117L10.5703 17.2383C10.4883 17.2734 10.4062 17.2969 10.3125 17.2969V16.0547L11.4961 15.4571C13.3007 14.5664 14.4531 12.6836 14.4531 10.668V8.79299L13.4414 8.30081C13.1484 8.1601 13.0312 7.80858 13.1836 7.51561C13.3242 7.23436 13.7148 7.11721 14.0078 7.25784L15.2968 7.90237C15.4961 8.00784 15.625 8.20706 15.625 8.42971Z" fill="#8B8B8B"/>
<path d="M7.96875 9.01562C6.99945 9.01562 6.17188 8.22711 6.17188 7.25781C6.17188 6.28852 6.99945 5.5 7.96875 5.5C8.93805 5.5 9.72656 6.28852 9.72656 7.25781C9.72656 8.22711 8.93805 9.01562 7.96875 9.01562Z" fill="#575F64"/>
<path d="M12.6562 9.01562C11.687 9.01562 10.8984 8.22711 10.8984 7.25781C10.8984 6.28852 11.687 5.5 12.6562 5.5C13.6255 5.5 14.4531 6.28852 14.4531 7.25781C14.4531 8.22711 13.6255 9.01562 12.6562 9.01562Z" fill="#474F54"/>
</g>
<defs>
<clipPath id="clip0_8164_16074">
<rect width="20" height="20" fill="white" transform="translate(5 5.5)"/>
</clipPath>
</defs>
</svg>
