<svg width="50" height="50" viewBox="0 0 50 50" fill="none" xmlns="http://www.w3.org/2000/svg">
<g clip-path="url(#clip0_9523_22846)">
<path d="M33.2516 35.924C33.2162 35.9028 33.1809 35.8806 33.1445 35.8594C33.1819 35.8776 33.2172 35.8988 33.2516 35.924Z" fill="#231F20"/>
<path d="M27.2007 43.4489L27.2754 43.3711C27.2532 43.3994 27.228 43.4246 27.2007 43.4489Z" fill="#231F20"/>
<path d="M21.7246 43.3711L21.7993 43.4489C21.7721 43.4246 21.7468 43.3994 21.7246 43.3711Z" fill="#231F20"/>
<path d="M15.8556 35.8594C15.8192 35.8806 15.7839 35.9028 15.7485 35.924C15.7829 35.8988 15.8182 35.8776 15.8556 35.8594Z" fill="#231F20"/>
<path d="M27.0729 41.3968L26.169 38.1378C26.6702 37.7185 26.9893 37.086 26.9893 36.3804V35.9184V35.157C26.9893 34.7366 26.6511 34.3955 26.2344 34.3955H22.7659C22.3492 34.3955 22.011 34.7366 22.011 35.157V35.9184V36.3804C22.011 37.086 22.3301 37.7185 22.8314 38.1378L21.9275 41.3978L21.5732 42.674C21.5038 42.9268 21.5682 43.1847 21.7252 43.3705L21.7997 43.4487L23.9597 45.6863C24.1016 45.8335 24.2969 45.9168 24.5002 45.9168C24.7035 45.9168 24.8988 45.8335 25.0407 45.6863L27.2007 43.4487L27.2752 43.3705C27.4322 43.1847 27.4966 42.9268 27.4271 42.674L27.0729 41.3968Z" fill="#A599A5"/>
<path d="M33.2519 35.9235C33.2166 35.9022 33.1814 35.8798 33.1452 35.8585C32.1115 35.2311 30.9862 34.759 29.8095 34.4686C29.7341 34.4493 29.6586 34.431 29.5821 34.4138C29.5277 34.4016 29.4724 34.3955 29.417 34.3955H28.2998H26.2344C26.6511 34.3955 26.9893 34.7366 26.9893 35.157V35.9184V36.3804C26.9893 37.086 26.6702 37.7185 26.1689 38.1378L27.0728 41.3968L27.4271 42.674C27.4966 42.9268 27.4321 43.1847 27.2751 43.3705L32.9157 37.5276L33.3535 37.0738C33.6444 36.7723 33.6384 36.29 33.3394 35.9966C33.3112 35.9692 33.2821 35.9448 33.2519 35.9235Z" fill="#E5E5E6"/>
<path d="M21.5728 42.674C21.5033 42.9268 21.5677 43.1847 21.7247 43.3705L20.5441 42.1471L16.0842 37.5276L15.6463 37.0738C15.3554 36.7723 15.3615 36.29 15.6604 35.9966C15.6886 35.9692 15.7178 35.9448 15.748 35.9235C15.7832 35.9022 15.8184 35.8798 15.8547 35.8585C16.8884 35.2311 18.0137 34.759 19.1903 34.4686C19.2658 34.4493 19.3413 34.431 19.4178 34.4138C19.4721 34.4016 19.5275 34.3955 19.5829 34.3955H22.7655C22.3488 34.3955 22.0106 34.7366 22.0106 35.157V36.3804C22.0106 37.086 22.3297 37.7185 22.8309 38.1378L21.927 41.3978L21.5728 42.674Z" fill="#E5E5E6"/>
<path d="M39 46.2918V59.2385C39 59.6588 38.6618 60 38.2451 60H33.1742V52.0829C33.1742 51.6626 32.836 51.3214 32.4193 51.3214C32.0026 51.3214 31.6644 51.6626 31.6644 52.0829V60H17.3356V52.0829C17.3356 51.6626 16.9974 51.3214 16.5807 51.3214C16.164 51.3214 15.8258 51.6626 15.8258 52.0829V60H10.7549C10.3382 60 10 59.6588 10 59.2385V46.2918C10 43.5099 10.9542 40.791 12.6874 38.6336C12.9703 38.2813 13.2712 37.9473 13.5893 37.6315C14.2435 36.9807 14.9692 36.4081 15.7483 35.9238C15.7181 35.9451 15.6889 35.9695 15.6607 35.9969C15.3618 36.2903 15.3557 36.7726 15.6466 37.0741L16.0844 37.528L21.725 43.3708C21.7472 43.3993 21.7723 43.4246 21.7995 43.449L23.9595 45.6867C24.1014 45.8339 24.2967 45.9171 24.5 45.9171C24.7033 45.9171 24.8986 45.8339 25.0405 45.6867L27.2005 43.449C27.2277 43.4246 27.2528 43.3993 27.275 43.3708L32.9156 37.528L33.3534 37.0741C33.6443 36.7726 33.6382 36.2903 33.3393 35.9969C33.3111 35.9695 33.2819 35.9451 33.2517 35.9238C33.9432 36.3533 34.5934 36.8528 35.1883 37.4163C35.5889 37.794 35.9643 38.2011 36.3126 38.6336C38.0458 40.791 39 43.5099 39 46.2918Z" fill="#CED1D2"/>
<path d="M29.8088 31.1375V34.4686C29.7333 34.4494 29.6578 34.4311 29.5813 34.4138C29.527 34.4016 29.4716 34.3955 29.4162 34.3955H19.5825C19.5271 34.3955 19.4718 34.4016 19.4174 34.4138C19.3409 34.4311 19.2654 34.4494 19.1899 34.4686V31.1375C19.1899 31.1274 19.1899 31.1183 19.1909 31.1081C19.1909 31.0847 19.193 31.0624 19.197 31.0391C19.2232 31.0594 19.2503 31.0787 19.2775 31.0969C19.4214 31.2035 19.5704 31.304 19.7214 31.4005C20.0374 31.6025 20.3635 31.7833 20.6997 31.9416C21.8844 32.5041 23.1788 32.7975 24.4994 32.7975C25.8199 32.7975 27.1143 32.5041 28.299 31.9416C28.6352 31.7822 28.9613 31.6015 29.2773 31.3995C29.4565 31.2848 29.6316 31.165 29.8017 31.0391C29.8068 31.0716 29.8088 31.104 29.8088 31.1375Z" fill="#FFCDBE"/>
<path d="M33.2225 21.0109C33.1168 20.9389 33.0061 20.8769 32.8903 20.8231C32.5632 20.6698 32.2119 20.5916 31.8476 20.5916C30.4948 20.5916 29.3655 21.7348 29.3655 23.0943V27.3818C29.3655 27.9158 29.5356 28.4478 29.8536 28.8763C30.0418 29.1311 30.2804 29.3514 30.5612 29.524C30.7525 29.6408 30.9578 29.7291 31.1702 29.79C30.7555 30.253 30.2975 30.6702 29.8023 31.0388C29.6322 31.1647 29.4571 31.2845 29.2779 31.3992C28.9618 31.6012 28.6357 31.782 28.2996 31.9414C27.1149 32.5038 25.8205 32.7972 24.4999 32.7972C23.1794 32.7972 21.885 32.5038 20.7003 31.9414C20.3641 31.783 20.038 31.6023 19.7219 31.4002C19.6797 31.3728 19.6384 31.3464 19.5961 31.318C19.4613 31.2286 19.3274 31.1362 19.1975 31.0388C18.7023 30.6702 18.2444 30.253 17.8297 29.79C18.0421 29.7291 18.2484 29.6397 18.4406 29.523C18.7003 29.3636 18.9228 29.1646 19.1029 28.9341C19.4492 28.4965 19.6344 27.9402 19.6344 27.3818V23.0943C19.6344 21.7348 18.5051 20.5916 17.1523 20.5916C16.7879 20.5916 16.4366 20.6698 16.1136 20.8211C15.9958 20.8759 15.8831 20.9389 15.7764 21.0109C16.8624 16.9935 20.4034 14.2178 24.4999 14.2178C24.6328 14.2178 24.7646 14.2208 24.8955 14.2269C28.8229 14.3985 32.1727 17.1235 33.2225 21.0109Z" fill="#FFDECF"/>
<path d="M36.9866 22.363C36.5437 21.9873 36.0143 21.7142 35.4325 21.5781C35.1628 21.5162 34.882 21.4827 34.5941 21.4827H33.7446C33.6993 21.4279 33.652 21.3761 33.6016 21.3253C33.4849 21.2076 33.3581 21.102 33.2222 21.0116C32.1372 16.9942 28.5962 14.2185 24.4996 14.2185C20.4031 14.2185 16.8621 16.9942 15.7761 21.0116C15.6402 21.103 15.5134 21.2076 15.3966 21.3253C15.3463 21.3761 15.299 21.4279 15.2547 21.4827H14.4052C14.1908 21.4827 13.9805 21.501 13.7751 21.5365C13.7047 21.5487 13.6352 21.5619 13.5668 21.5781C12.985 21.7142 12.4556 21.9873 12.0127 22.363C12.1375 15.5241 17.6905 10 24.4996 10C25.2243 10 25.9339 10.0629 26.6244 10.1827C32.429 11.1899 36.8749 16.252 36.9866 22.363Z" fill="#A599A5"/>
<path d="M33.6017 21.3248C33.4849 21.2071 33.3581 21.1015 33.2222 21.0111C33.1166 20.939 33.0058 20.8771 32.8901 20.8233C32.563 20.67 32.2117 20.5918 31.8473 20.5918C30.495 20.5918 29.3652 21.7348 29.3652 23.0944V27.3819C29.3652 27.9165 29.5351 28.4483 29.8534 28.8764C30.0416 29.1312 30.2802 29.3516 30.561 29.5241C30.7522 29.6409 30.9576 29.7292 31.1699 29.7902C31.3894 29.8531 31.6168 29.8856 31.8473 29.8856C32.6073 29.8856 33.2887 29.5394 33.7436 28.9942C34.108 28.5586 34.3284 27.9962 34.3284 27.3819V23.0944C34.3284 22.4975 34.1231 21.934 33.7446 21.4822C33.6993 21.4274 33.652 21.3756 33.6017 21.3248C33.652 21.3756 33.4849 21.2071 33.6017 21.3248Z" fill="#2ECACA"/>
<path d="M19.6255 22.8914C19.5494 21.6115 18.4069 20.5918 17.1525 20.5918C16.7881 20.5918 16.4368 20.67 16.1137 20.8212C15.996 20.8761 15.8832 20.939 15.7766 21.0111C15.6407 21.1025 15.5138 21.2071 15.3971 21.3248C15.3468 21.3756 15.2995 21.4274 15.2552 21.4822C14.8767 21.934 14.6714 22.4975 14.6714 23.0944V27.3819C14.6714 27.9962 14.8918 28.5586 15.2562 28.9942C15.7111 29.5394 16.3925 29.8856 17.1525 29.8856C17.383 29.8856 17.6104 29.8531 17.8299 29.7902C18.0422 29.7292 18.2486 29.6399 18.4408 29.5231C18.7005 29.3637 18.9229 29.1647 19.1031 28.9343C19.4498 28.4971 19.6346 27.9403 19.6346 27.3819V23.0944C19.6346 23.0266 19.6315 22.9589 19.6255 22.8914C19.6285 22.9198 19.6225 22.8406 19.6255 22.8914C19.6285 22.9198 19.5494 21.6114 19.6255 22.8914Z" fill="#2ECACA"/>
<path d="M36.9867 22.3627C36.5438 21.987 36.0144 21.7139 35.4326 21.5779C35.1629 21.5159 34.882 21.4824 34.5942 21.4824H33.7447C34.1231 21.9342 34.3284 22.4977 34.3284 23.0947V27.3822C34.3284 27.9964 34.108 28.5589 33.7437 28.9944H34.5942C36.6475 28.9944 38.3173 27.3101 38.3173 25.2389C38.3173 24.0856 37.7999 23.052 36.9867 22.3627Z" fill="#AFE1D5"/>
<path d="M15.2563 28.9944H14.4058C14.3373 28.9944 14.2689 28.9924 14.2014 28.9883C13.7867 28.966 13.3902 28.8746 13.0228 28.7243C11.6519 28.171 10.6826 26.8177 10.6826 25.2389C10.6826 24.0856 11.2 23.052 12.0132 22.3627C12.4561 21.987 12.9855 21.7139 13.5673 21.5779C13.6126 21.5677 13.6589 21.5576 13.7052 21.5494C13.8985 21.5119 14.0978 21.4905 14.3001 21.4845C14.3353 21.4824 14.3705 21.4824 14.4058 21.4824H15.2553C14.8768 21.9342 14.6715 22.4977 14.6715 23.0947V27.3822C14.6715 27.9964 14.8919 28.5589 15.2563 28.9944Z" fill="#AFE1D5"/>
<path d="M21.1361 17.5296C20.5443 18.9489 20.7426 20.5703 21.0868 22.0709C21.431 23.5704 21.9132 25.068 21.8578 26.6071C21.7934 28.4011 20.9408 30.1464 19.5961 31.318C19.4613 31.2286 19.3274 31.1362 19.1975 31.0388C18.7023 30.6702 18.2444 30.253 17.8297 29.79C18.0421 29.7291 18.2484 29.6397 18.4406 29.523C18.7003 29.3636 18.9228 29.1646 19.1029 28.9341C19.4492 28.4965 19.6344 27.9402 19.6344 27.3818V23.0943C19.6344 21.7348 18.5051 20.5916 17.1523 20.5916C16.7879 20.5916 16.4366 20.6698 16.1136 20.8211C15.9958 20.8759 15.8831 20.9389 15.7764 21.0109C16.8624 16.9935 20.4034 14.2178 24.4999 14.2178C24.6328 14.2178 24.7646 14.2208 24.8955 14.2269C23.2881 14.9579 21.8034 15.9336 21.1361 17.5296Z" fill="#FFCDBE"/>
<path d="M29.8088 31.1375V32.6066C29.7655 32.628 29.7212 32.6493 29.6769 32.6706C26.3946 34.2402 22.4491 33.8047 19.1899 32.1264V31.1375C19.1899 31.1274 19.1899 31.1183 19.1909 31.1081C19.2201 31.1051 19.2493 31.102 19.2775 31.0969C19.4214 31.2035 19.5704 31.304 19.7214 31.4005C20.0374 31.6025 20.3635 31.7833 20.6997 31.9416C21.8844 32.5041 23.1788 32.7975 24.4994 32.7975C25.8199 32.7975 27.1143 32.5041 28.299 31.9416C28.6352 31.7822 28.9613 31.6015 29.2773 31.3995C29.4565 31.2848 29.6316 31.165 29.8017 31.0391C29.8068 31.0716 29.8088 31.104 29.8088 31.1375Z" fill="#F7B9A6"/>
<path d="M21.5726 42.674C21.5032 42.9268 21.5676 43.1847 21.7246 43.3705L20.5439 42.1471C20.7644 41.4953 20.9848 40.8435 21.2052 40.1927C21.3683 39.7094 21.5344 39.2038 21.4649 38.6982C21.3914 38.1611 21.0633 37.6992 20.866 37.1946C20.5127 36.293 20.5973 35.229 21.0885 34.3965C21.0885 34.3965 21.0885 34.3955 21.0895 34.3955H22.7653C22.3486 34.3955 22.0105 34.7366 22.0105 35.157V36.3804C22.0105 37.086 22.3295 37.7185 22.8308 38.1378L21.9269 41.3978L21.5726 42.674Z" fill="#D1D3D4"/>
<path d="M27.4393 42.674C27.5088 42.9268 27.4443 43.1847 27.2873 43.3705L28.468 42.1471C28.2475 41.4953 28.0271 40.8435 27.8067 40.1927C27.6436 39.7094 27.4776 39.2038 27.547 38.6982C27.6205 38.1611 27.9486 37.6992 28.1459 37.1946C28.4992 36.293 28.4146 35.229 27.9234 34.3965C27.9234 34.3965 27.9234 34.3955 27.9224 34.3955H26.2466C26.6633 34.3955 27.0015 34.7366 27.0015 35.157V36.3804C27.0015 37.086 26.6824 37.7185 26.1812 38.1378L27.085 41.3978L27.4393 42.674Z" fill="#D1D3D4"/>
<path d="M35.1879 37.4163C31.7335 40.9596 24.4996 48.1984 24.4996 48.1984L13.5889 37.6315C14.2431 36.9807 14.9688 36.4081 15.7479 35.9238C15.7177 35.9451 15.6885 35.9695 15.6603 35.9969C15.3614 36.2903 15.3553 36.7726 15.6462 37.0741L16.084 37.528L21.7246 43.3708C21.7468 43.3993 21.7719 43.4246 21.7991 43.449L23.9591 45.6867C24.101 45.8339 24.2963 45.9171 24.4996 45.9171C24.7029 45.9171 24.8982 45.8339 25.0401 45.6867L27.2001 43.449C27.2273 43.4246 27.2524 43.3993 27.2746 43.3708L32.9152 37.528L33.353 37.0741C33.6439 36.7726 33.6378 36.2903 33.3389 35.9969C33.3107 35.9695 33.2815 35.9451 33.2513 35.9238C33.9428 36.3533 34.593 36.8528 35.1879 37.4163Z" fill="#BCBEC0"/>
<path d="M26.6244 10.1827C23.5746 11.1138 20.6849 12.6021 18.3206 14.7454C16.2874 16.5891 14.6669 18.9415 13.7751 21.5365C13.7047 21.5487 13.6352 21.5619 13.5668 21.5781C12.985 21.7142 12.4556 21.9873 12.0127 22.363C12.1375 15.5241 17.6905 10 24.4996 10C25.2243 10 25.9339 10.0629 26.6244 10.1827Z" fill="#9F92A0"/>
<path d="M13.0228 28.7247C11.6519 28.1714 10.6826 26.818 10.6826 25.2393C10.6826 24.086 11.2 23.0524 12.0132 22.363C12.4561 21.9874 12.9855 21.7143 13.5673 21.5782C13.6126 21.5681 13.6589 21.5579 13.7052 21.5498C13.0077 23.8646 12.7812 26.3185 13.0228 28.7247Z" fill="#9AD8C6"/>
</g>
<defs>
<clipPath id="clip0_9523_22846">
<rect width="45" height="45" fill="white" transform="translate(2.66602 2.5)"/>
</clipPath>
</defs>
</svg>
