<svg width="50" height="50" viewBox="0 0 50 50" fill="none" xmlns="http://www.w3.org/2000/svg">
<g clip-path="url(#clip0_9523_22876)">
<path d="M31.8229 48.0004H12.4668C9.99988 48.0004 8 46.0005 8 43.5336V16.9561C8 14.4891 9.99988 12.4893 12.4668 12.4893H31.8229C34.2899 12.4893 36.2898 14.4891 36.2898 16.9561V43.5336C36.2898 46.0005 34.2899 48.0004 31.8229 48.0004Z" fill="#B3B3B3"/>
<path d="M17.6781 45.0224V12.4893H12.4668C9.99988 12.4893 8 14.4891 8 16.956V43.5335C8 46.0004 9.99988 48.0003 12.4668 48.0003H20.656C19.0113 48.0003 17.6781 46.6671 17.6781 45.0224Z" fill="#B3B3B3"/>
<path d="M31.823 15.4668H16.1892L14.7002 43.5332C14.7002 44.3555 16.0852 45.0221 17.678 45.0221H30.2247L33.3118 33.2223V16.9557C33.3119 16.1347 32.644 15.4668 31.823 15.4668Z" fill="#F5F5FC"/>
<path d="M16.1893 43.5332V15.4668H12.467C11.646 15.4668 10.978 16.1347 10.978 16.9558V43.5332C10.978 44.3543 11.646 45.0222 12.467 45.0222H17.6783C16.8559 45.0221 16.1893 44.3555 16.1893 43.5332Z" fill="#EBEBF5"/>
<path d="M30.3338 22.3945H13.9556C13.6562 22.3945 13.4136 22.1519 13.4136 21.8525C13.4136 21.5532 13.6562 21.3105 13.9556 21.3105H30.3338C30.6332 21.3105 30.8758 21.5532 30.8758 21.8525C30.8758 22.1519 30.6331 22.3945 30.3338 22.3945Z" fill="#D1D1E8"/>
<path d="M30.3338 25.3721H13.9556C13.6562 25.3721 13.4136 25.1294 13.4136 24.8301C13.4136 24.5308 13.6562 24.2881 13.9556 24.2881H30.3338C30.6332 24.2881 30.8758 24.5308 30.8758 24.8301C30.8758 25.1294 30.6331 25.3721 30.3338 25.3721Z" fill="#D1D1E8"/>
<path d="M30.3338 28.3506H13.9556C13.6562 28.3506 13.4136 28.1079 13.4136 27.8086C13.4136 27.5093 13.6562 27.2666 13.9556 27.2666H30.3338C30.6332 27.2666 30.8758 27.5093 30.8758 27.8086C30.8758 28.1079 30.6331 28.3506 30.3338 28.3506Z" fill="#D1D1E8"/>
<path d="M30.3338 31.3281H13.9556C13.6562 31.3281 13.4136 31.0855 13.4136 30.7861C13.4136 30.4868 13.6562 30.2441 13.9556 30.2441H30.3338C30.6332 30.2441 30.8758 30.4868 30.8758 30.7861C30.8758 31.0855 30.6331 31.3281 30.3338 31.3281Z" fill="#D1D1E8"/>
<path d="M26.6117 11H22.1448C21.3225 11 19.167 11.6667 19.167 12.489V15.4668C19.167 16.2891 21.3225 16.9558 22.1448 16.9558H26.6117C27.434 16.9558 28.1006 16.2891 28.1006 15.4668V12.489C28.1006 11.6667 27.434 11 26.6117 11Z" fill="#F8E878"/>
<path d="M20.6558 15.4668V12.489C20.6558 11.6667 21.3224 11 22.1447 11H17.6779C16.8556 11 16.189 11.6667 16.189 12.489V15.4668C16.189 16.2891 16.8556 16.9558 17.6779 16.9558H22.1447C21.3224 16.9557 20.6558 16.2891 20.6558 15.4668Z" fill="#FCDA72"/>
<path d="M44.3 43.1013C44.0567 42.8145 43.7735 42.5862 43.4667 42.4163C41.4977 41.326 39.6553 40.0213 38.0638 38.4298L37.3381 37.7041L34.7061 40.3362L35.2631 40.8932C36.9024 42.5325 38.3018 44.3968 39.4031 46.4369C39.5371 46.6851 39.7089 46.9183 39.9186 47.1279C41.1316 48.3409 43.1306 48.2887 44.2759 46.9713C45.2315 45.8721 45.2424 44.2118 44.3 43.1013Z" fill="#555A66"/>
<path d="M30.2246 21.3105C29.1984 21.3105 26.8745 22.1454 26.8745 23.1717V43.2724C26.8745 43.2724 29.1984 45.1336 30.2246 45.1336C36.8032 45.1336 42.1361 39.8006 42.1361 33.2221C42.1361 26.6435 36.8032 21.3105 30.2246 21.3105Z" fill="#707789"/>
<path d="M28.3637 43.2724C28.3637 42.2462 29.1986 41.4112 30.2249 41.4112V25.0329C29.1987 25.0329 28.3637 24.1981 28.3637 23.1717C28.3637 22.1455 29.1986 21.3105 30.2249 21.3105C23.6464 21.3105 18.3135 26.6435 18.3135 33.222C18.3135 39.8005 23.6464 45.1335 30.2249 45.1335C29.1986 45.1336 28.3637 44.2988 28.3637 43.2724Z" fill="#636978"/>
<path d="M38.4137 33.2222C38.4137 30.046 36.5955 27.2873 33.9458 25.9297C30.334 26.9974 27.9912 30.0467 27.9912 33.2222C27.9912 36.3977 30.7389 39.7266 33.9458 40.5148C36.5955 39.1572 38.4137 36.3984 38.4137 33.2222Z" fill="#E2F7F7"/>
<path d="M29.4803 33.2223C29.4803 30.0463 31.2977 27.2869 33.9471 25.9292C32.8297 25.3565 31.5643 25.0332 30.2248 25.0332C25.7093 25.0332 22.0356 28.7068 22.0356 33.2223C22.0356 37.7379 25.7093 41.4115 30.2248 41.4115C31.5643 41.4115 32.8297 41.0882 33.9471 40.5155C31.2977 39.1578 29.4803 36.3983 29.4803 33.2223Z" fill="#BCEEEE"/>
<path d="M33.5749 31.3613H32.0859C30.3341 31.3613 28.7358 32.1946 28.7358 33.2225C28.7358 34.2504 30.2248 35.0837 32.0859 35.0837H33.5749C34.6028 35.0837 35.4361 34.2504 35.4361 33.2226C35.4361 32.1946 34.6028 31.3613 33.5749 31.3613Z" fill="#36D9D9"/>
<path d="M30.2245 33.2221C30.2245 32.1942 31.0578 31.3609 32.0857 31.3609V29.8719C32.0857 28.844 31.2525 28.0107 30.2245 28.0107C29.1966 28.0107 28.3633 28.844 28.3633 29.8719V31.3609H26.8744C25.8465 31.3609 25.0132 32.1942 25.0132 33.2221C25.0132 34.25 25.8465 35.0832 26.8744 35.0832H28.3633V36.5722C28.3633 37.6001 29.1966 38.4333 30.2245 38.4333C31.2525 38.4333 32.0857 37.6 32.0857 36.5722V35.0832C31.0578 35.0833 30.2245 34.25 30.2245 33.2221Z" fill="#2ECACA"/>
</g>
<defs>
<clipPath id="clip0_9523_22876">
<rect width="37" height="37" fill="white" transform="translate(8 11)"/>
</clipPath>
</defs>
</svg>
